<svg width="157" height="48" viewBox="0 0 157 48" fill="none" xmlns="http://www.w3.org/2000/svg">
<g clip-path="url(#clip0_331_51399)">
<path d="M16.46 2.34891C20.0719 2.78312 24.8876 4.93444 27.8679 8.25023C23.96 3.45418 18.6903 0.197598 13.5982 0.000229834C5.34817 -0.295823 0.74949 7.61865 3.31528 17.645C3.67054 19.0463 4.14423 20.4081 4.73633 21.7305C5.54554 23.7634 6.69028 25.816 8.15081 27.7897C9.11791 29.0923 10.1837 30.3358 11.3087 31.4805C10.4995 30.6318 9.74949 29.7436 9.0587 28.7963C2.32844 19.6976 3.17712 9.65155 11.3087 6.73049C14.8613 5.4476 19.4403 6.01997 23.7034 7.44102C19.6969 4.61865 14.8219 2.86207 9.39423 4.6976C7.40081 5.36865 5.88107 6.61207 4.83502 8.25023C6.53238 3.98707 10.3021 1.61865 16.46 2.34891Z" fill="#144992"/>
<path d="M34.2234 21.1585H34.1445C38.9603 29.1124 40.0063 37.2637 36.8484 41.6058C32.5458 47.5269 21.3353 44.2703 11.8024 34.3229C2.48657 24.6124 -1.77658 12.119 2.05236 6.04004C1.97342 6.15846 1.87473 6.25714 1.79578 6.37557C-2.8029 12.6914 1.73657 26.4479 11.9208 37.0664C22.1247 47.6848 34.105 51.1782 38.7037 44.8624C42.3353 39.869 40.2629 30.2374 34.2234 21.1585Z" fill="#F68B22"/>
<path d="M31.9736 17.2307C33.1775 18.711 33.5525 20.3886 32.8025 21.0202C32.0525 21.6518 30.4538 20.961 29.2499 19.5005C28.0459 18.0399 27.6709 16.3426 28.4209 15.7307C29.1512 15.0991 30.7499 15.7702 31.9736 17.2307Z" fill="#F68B22"/>
<path d="M46.4203 17.6849C46.5782 17.6849 46.7756 17.7441 46.973 17.8625C47.1506 17.9809 47.3085 18.0994 47.4664 18.198C47.8809 17.5665 48.098 17.2309 48.098 17.1717C48.098 16.9546 47.9993 16.7572 47.8019 16.5994C47.6045 16.4217 47.3874 16.3428 47.1703 16.3428C46.519 16.3428 45.9269 16.6191 45.3545 17.152C44.8019 17.6849 44.5059 18.277 44.5059 18.9283C44.5059 19.2046 44.6835 19.402 45.019 19.5007C45.3151 19.5796 45.5914 19.6586 45.8677 19.7375C45.5716 19.8954 45.3151 20.0928 45.0585 20.3296C44.7624 20.6454 44.6045 20.9217 44.6243 21.1586V21.2572C45.6309 20.3494 46.8151 19.8757 48.1572 19.8362C48.473 19.402 48.769 18.9678 49.0059 18.573C47.0914 18.573 45.9664 18.3954 45.6309 18.0204C45.9861 17.8033 46.2427 17.6849 46.4203 17.6849Z" fill="#144992"/>
<path d="M57.2762 17.6646C57.2762 17.1909 57.1775 16.7173 56.9801 16.2238C56.7827 15.7304 56.4867 15.3554 56.1512 15.0791L55.3025 16.5988C55.4801 16.7567 55.6577 17.0133 55.8748 17.3883C56.092 17.7633 56.1906 18.0594 56.1906 18.2567C56.1906 18.2962 56.1709 18.2962 56.1709 18.2962H53.6841H53.1906H52.8946C52.5985 18.2962 52.4604 18.2173 52.4209 18.0594C52.3025 17.5265 52.1841 16.6778 52.1051 15.4936C52.0459 14.6054 51.9867 13.7173 51.9275 12.8291C51.8288 12.908 51.6512 13.1449 51.3551 13.4804C51.0591 13.8554 50.9209 14.0923 50.9209 14.1515L51.4341 19.8949H53.1709H53.6643H56.8222C57.1183 19.8752 57.2762 19.1252 57.2762 17.6646Z" fill="#144992"/>
<path d="M55.5394 21.1387C55.1841 20.8229 54.967 20.665 54.9078 20.665C54.8486 20.665 54.6512 20.8229 54.3157 21.1387C53.9802 21.4742 53.8223 21.6519 53.8223 21.7111C53.8223 21.7703 53.9802 21.9282 54.3157 22.1848C54.6315 22.4414 54.8486 22.5993 54.9275 22.5993C55.6973 22.165 56.0723 21.869 56.0723 21.7111C56.0723 21.6519 55.8946 21.4742 55.5394 21.1387Z" fill="#144992"/>
<path d="M66.1576 17.566C65.8615 17.6844 65.526 17.8028 65.23 17.941H65.1313C65.7234 17.1515 66.2168 16.6384 66.5721 16.4213C66.6115 16.5199 66.6115 16.6186 66.6115 16.7568C66.6115 17.1318 66.4734 17.4081 66.1576 17.566ZM66.6115 20.3884H66.276C66.0392 20.3884 65.7826 20.2897 65.5457 20.1318C65.3089 19.9739 65.151 19.7568 65.0326 19.5199C65.3089 19.5199 65.605 19.5792 65.9207 19.7173C66.2563 19.8752 66.4931 20.0528 66.5918 20.2699V20.3884H66.6115ZM78.355 13.9542C77.8813 13.6778 77.6444 13.4607 77.5852 13.3423C77.5457 13.2239 77.526 13.0463 77.5063 12.8489L77.4076 12.7699C77.0918 13.1252 76.7563 13.6976 76.3813 14.487C76.5194 14.6844 76.6773 14.8423 76.8352 14.941C76.9142 15.1581 77.0326 15.6713 77.151 16.4805C77.2694 17.2897 77.3484 17.8423 77.3484 18.1186C77.3484 18.1581 77.3286 18.2173 77.3089 18.2765H76.1839C75.9471 18.2765 75.8089 18.2765 75.7892 18.2568C75.651 18.237 75.5721 18.1581 75.5523 18.0199C75.4931 17.6647 75.4339 16.7963 75.355 15.3949C75.2957 14.2897 75.1576 13.4213 74.9997 12.7699L74.9405 12.7305L73.8155 14.3292L74.4076 18.2963H72.8878H72.6115C72.1971 18.2963 71.605 17.8818 70.8747 17.0528C70.3615 16.4607 69.8484 15.8489 69.3155 15.2765L72.6313 14.6055C72.8089 14.0528 72.9471 13.5199 73.0655 13.0265C72.9471 13.0068 71.4865 13.3028 68.6839 13.9147C68.4076 14.6252 68.2102 15.3555 68.0918 16.1055L70.3813 18.2963H68.0918H66.7102C66.8878 17.9015 67.026 17.5265 67.2036 17.1515C67.401 16.6384 67.4997 16.2436 67.4997 15.987V15.1581C67.0457 15.1581 66.5326 15.4147 65.98 15.9278C65.4865 16.362 65.1115 16.7963 64.8352 17.2897C64.6378 17.7436 64.48 18.0792 64.401 18.3357H63.9076H63.6313C63.0194 18.3357 62.5655 18.1186 62.23 17.7042C61.9339 17.2699 61.6378 16.816 61.3615 16.3818C61.2826 16.4805 61.1247 16.7173 60.8878 17.112C60.651 17.5068 60.5326 17.7239 60.5326 17.7831C60.5326 17.8028 60.6707 18.0002 60.9471 18.3752C61.2234 18.7502 61.3813 19.0068 61.3813 19.1647C61.3813 19.5199 60.9668 19.9542 60.1576 20.487C59.3681 21.0397 58.7365 21.316 58.3221 21.316C58.0655 21.316 57.73 21.2173 57.3944 21.0002C57.0392 20.8028 56.8813 20.7042 56.9207 20.7042C56.8615 20.7042 56.8418 20.7042 56.8418 20.7436V20.9213C57.0984 21.2173 57.5918 21.5331 58.2629 21.8884C58.9536 22.2239 59.4865 22.3818 59.8418 22.3818C60.3747 22.3818 60.8681 22.066 61.3023 21.4344C61.6181 20.8818 61.9142 20.3489 62.2102 19.816L62.2892 19.737C62.526 19.8555 62.7234 19.9147 62.8615 19.9147H63.276H63.9273H63.9471C63.9865 19.9147 64.105 20.0923 64.2826 20.4476C64.5194 20.9015 64.7365 21.237 64.9142 21.4542C65.2102 21.8094 65.526 21.987 65.8221 21.987C66.6115 21.987 67.2234 21.2963 67.6773 19.9147H70.4602L71.0721 18.9278L72.1378 19.9147H73.3418H73.9734L74.4865 18.9476C74.5063 19.1252 74.526 19.3226 74.526 19.5002C74.5655 19.7765 74.6444 19.9147 74.7628 19.9147H75.8089H76.2628H77.7628C77.901 19.8357 77.98 19.7963 77.9997 19.7568C78.0589 19.6778 78.1576 19.3818 78.2563 18.8884C78.3747 18.3752 78.4142 18.0792 78.3944 17.9607L78.1576 15.9278L79.3023 14.4476C79.026 14.3292 78.7102 14.1713 78.355 13.9542Z" fill="#144992"/>
<path d="M84.1975 13.6386C84.8685 14.0531 85.2633 14.2505 85.4014 14.2505C85.4606 14.2505 85.5988 14.1123 85.8356 13.8163C86.0527 13.5597 86.1909 13.382 86.2698 13.2636L85.0462 12.6123C84.5133 13.007 84.2567 13.2241 84.2764 13.2241C84.0988 13.2241 83.7435 13.0268 83.1712 12.6123C82.6777 13.1452 82.4014 13.461 82.3027 13.5794C82.8159 13.9149 83.2304 14.1123 83.5264 14.211C83.8619 13.9149 84.0988 13.7176 84.1975 13.6386Z" fill="#144992"/>
<path d="M90.7691 21.1978C90.5915 21.3952 90.4731 21.4939 90.3941 21.4939C90.2954 21.4939 89.9402 21.2965 89.3481 20.882C89.052 21.2176 88.7954 21.5531 88.5586 21.8886C88.7954 22.1057 89.1704 22.3426 89.6836 22.5991C89.9796 22.3031 90.1968 22.0663 90.3349 21.9478L91.4402 22.5991C91.6967 22.382 91.9731 22.0663 92.2691 21.5728L91.1244 20.8623C91.0849 20.9018 90.9665 21.0005 90.7691 21.1978Z" fill="#144992"/>
<path d="M84.7493 17.4473C84.9664 17.2697 85.144 17.1315 85.3019 17.0723C85.6177 16.7763 85.8348 16.5394 85.9532 16.3421L86.2295 17.6447L84.7493 17.4473ZM91.0059 16.6184C91.4203 17.1907 91.7164 17.7434 91.9138 18.2763H88.894H88.3809H88.144C87.7493 18.2763 87.5322 18.1578 87.4532 17.921C87.3151 17.5065 87.1572 16.8157 86.9993 15.8486C86.8216 14.7236 86.6835 13.9934 86.5848 13.6578L86.5059 13.5986L85.6374 15.0986C85.6769 15.2368 85.7164 15.3947 85.7756 15.5526C85.2427 15.8486 84.7098 16.1447 84.1769 16.4605C83.8019 16.6973 83.5453 16.9736 83.348 17.3092C83.1703 17.6249 82.973 18.2171 82.7559 19.0855L85.4006 19.5592C85.5388 19.5789 85.6967 19.421 85.894 19.0855C86.1309 18.671 86.2493 18.4342 86.3282 18.3749C86.4269 18.6907 86.5256 19.0065 86.6243 19.3223C86.8019 19.6973 87.019 19.8749 87.3545 19.8749H88.3611H88.8743H92.6243C92.8414 18.7499 92.9401 17.9999 92.9401 17.6052C92.9401 16.9144 92.5651 16.1052 91.8151 15.1973L91.0059 16.6184Z" fill="#144992"/>
<path d="M95.5656 14.8428L95.0524 16.5204C95.3485 16.5599 95.684 16.7967 96.138 17.1915C96.5722 17.6059 96.7893 17.9415 96.7893 18.2178C96.7893 18.2375 96.7893 18.2572 96.7695 18.277H93.9077L93.7695 19.8757H97.3024C97.6182 19.8757 97.7958 19.323 97.7958 18.198C97.7761 16.6191 97.0458 15.4941 95.5656 14.8428Z" fill="#144992"/>
<path d="M101.506 18.2761C101.072 18.2761 100.796 18.1182 100.618 17.8419C100.638 17.8222 100.638 17.8024 100.618 17.7827C100.598 17.7037 100.657 17.6051 100.796 17.4866C100.934 17.3682 101.032 17.2893 101.092 17.2893C101.25 17.2893 101.388 17.4077 101.526 17.6445C101.546 17.6643 101.625 17.8616 101.802 18.1972C101.704 18.2366 101.605 18.2761 101.506 18.2761ZM118.184 13.9537C117.71 13.6774 117.454 13.4603 117.414 13.3419C117.355 13.2235 117.335 13.0458 117.335 12.8485L117.236 12.7695C116.921 13.1248 116.585 13.6774 116.21 14.4866C116.368 14.684 116.506 14.8419 116.664 14.9406C116.743 15.1577 116.861 15.6708 116.98 16.4801C117.118 17.2893 117.177 17.8419 117.177 18.1182C117.177 18.1577 117.157 18.2169 117.138 18.2761H116.111H115.736C115.282 18.2761 115.046 17.9603 115.046 17.3682C115.065 17.3287 115.065 17.2498 115.065 17.1511C115.065 17.0524 115.046 16.9735 115.046 16.934C115.046 16.6774 115.026 16.4801 114.986 16.3024C114.868 16.3814 114.69 16.5787 114.414 16.8945C114.138 17.2301 114.019 17.4472 114.019 17.5656C114.019 17.6248 114.039 17.7037 114.059 17.8222C114.079 17.9406 114.098 18.0195 114.098 18.0787C114.098 18.138 114.059 18.1972 114.019 18.2564C113.329 18.2169 112.973 18.2169 112.914 18.2564C113.072 17.5656 113.151 16.934 113.151 16.3222C113.151 16.2827 113.131 16.2037 113.111 16.1643C112.954 16.3024 112.736 16.5393 112.48 16.8945C112.184 17.2893 112.046 17.5656 112.046 17.7037C112.046 17.9801 111.986 18.1577 111.907 18.2366H111.355H110.743H110.605C110.901 17.388 111.059 16.8353 111.059 16.559L111.019 16.184C110.881 16.2432 110.664 16.4406 110.388 16.7564C110.092 17.0919 109.954 17.309 109.954 17.4472C109.954 17.7235 109.894 17.9801 109.776 18.2169H108.572H108.118H107.625C107.743 18.0393 107.842 17.8616 107.921 17.7037C108.059 17.4866 108.118 17.309 108.118 17.1708C108.118 16.7761 107.901 16.4208 107.467 16.1248C107.072 15.8485 106.657 15.7103 106.243 15.7103C105.572 15.7103 105.059 15.8682 104.743 16.2235C104.546 16.4208 104.309 16.8748 103.973 17.6248C104.309 17.5853 104.467 17.5656 104.506 17.5656C104.96 17.5656 105.355 17.7827 105.651 18.1972H103.815H103.223H102.967C102.71 16.5195 102.256 15.6708 101.585 15.6708C101.151 15.6708 100.736 16.0853 100.302 16.8945C99.9272 17.6248 99.7298 18.2169 99.7298 18.6708C99.7298 19.1051 99.9864 19.4011 100.46 19.559C100.519 19.5787 100.954 19.6774 101.723 19.8156C101.368 20.1511 100.934 20.4669 100.44 20.7432C99.868 21.0393 99.3548 21.1972 98.9404 21.1972C98.822 21.1972 98.6049 21.1577 98.3088 21.0787C98.0127 20.9998 97.8154 20.9603 97.6575 20.9603C97.618 20.9603 97.5785 20.9801 97.5391 21.0195V21.1577C97.7759 21.4537 98.1904 21.6906 98.743 21.9077C99.2759 22.1051 99.7496 22.2235 100.164 22.2235C100.657 22.2235 101.19 21.9274 101.723 21.3551C102.138 20.9011 102.473 20.388 102.73 19.8156H103.223H103.835H105.829C106.046 19.4998 106.204 19.2432 106.302 19.0853C106.5 19.4011 106.638 19.6577 106.736 19.8156H108.118H108.572H109.401C109.48 19.8156 109.579 19.7564 109.697 19.638C109.815 19.5195 109.875 19.4406 109.914 19.4011C109.993 19.5393 110.052 19.6972 110.052 19.8156H110.723H111.335H111.789C111.789 19.8156 111.868 19.7761 111.947 19.6972C112.026 19.5985 112.085 19.559 112.125 19.559C112.184 19.559 112.282 19.6577 112.401 19.8156H114.375C114.493 19.638 114.592 19.4998 114.671 19.4011C114.75 19.5787 114.829 19.7169 114.868 19.8156H115.579H116.092H117.513C117.651 19.7366 117.73 19.6972 117.75 19.6774C117.809 19.5985 117.907 19.3024 118.006 18.809C118.105 18.2958 118.164 17.9998 118.144 17.8814L117.986 15.888L119.131 14.4077C118.855 14.3287 118.559 14.1708 118.184 13.9537Z" fill="#144992"/>
<path d="M120.335 15.2768L120.986 19.9939C121.559 19.3228 121.835 18.4939 121.835 17.507C121.835 16.6386 121.697 15.2768 121.401 13.3623C120.888 14.0926 120.532 14.7439 120.335 15.2768Z" fill="#144992"/>
<path d="M127.401 13.6386C128.072 14.0531 128.467 14.2505 128.605 14.2505C128.665 14.2505 128.822 14.1123 129.059 13.8163C129.276 13.5597 129.415 13.382 129.474 13.2636L128.25 12.6123C127.717 13.007 127.461 13.2241 127.48 13.2241C127.322 13.2241 126.947 13.0268 126.375 12.6123C125.882 13.1452 125.586 13.461 125.526 13.5794C126.04 13.9149 126.454 14.1123 126.73 14.211C127.086 13.9149 127.303 13.7176 127.401 13.6386Z" fill="#144992"/>
<path d="M127.953 17.4472C128.19 17.2696 128.368 17.1314 128.506 17.0722C128.822 16.7762 129.039 16.5393 129.157 16.342L129.433 17.6446L127.953 17.4472ZM135.137 16.5985C134.565 16.1446 133.973 15.6906 133.42 15.2367C134.802 14.8025 135.848 14.4867 136.539 14.2893C136.716 13.6972 136.854 13.1643 136.953 12.6709L132.335 14.0327C132.256 14.3683 132.177 14.6841 132.098 14.9998C131.979 15.3946 131.94 15.7104 131.94 15.9472C131.94 16.0262 132.118 16.263 132.473 16.6183C132.828 16.9933 133.065 17.1709 133.144 17.1709C133.262 17.1709 133.341 17.1117 133.381 16.9933L135.019 18.2564H132.098H131.348C130.973 18.2564 130.756 18.138 130.657 17.9012C130.519 17.4867 130.381 16.7959 130.203 15.8288C130.026 14.7038 129.887 13.9538 129.808 13.638L129.729 13.5788L128.841 15.0788C128.861 15.217 128.92 15.3748 128.979 15.5327C128.447 15.8485 127.914 16.1248 127.381 16.4406C127.026 16.6775 126.749 16.9538 126.572 17.2893C126.394 17.6051 126.197 18.1972 125.979 19.0656L128.644 19.5393C128.762 19.5591 128.94 19.4012 129.137 19.0459C129.354 18.6314 129.493 18.3946 129.572 18.3551C129.67 18.6709 129.769 18.9867 129.868 19.3025C130.026 19.6775 130.282 19.8551 130.598 19.8551H131.348H132.098H135.907C136.223 18.8485 136.381 18.2762 136.381 18.1183C136.42 17.8617 135.986 17.3485 135.137 16.5985Z" fill="#144992"/>
<path d="M146.94 14.9017L148.183 15.5136C148.657 15.178 148.973 14.8425 149.072 14.5465L147.808 13.8359C147.67 13.9741 147.552 14.0728 147.414 14.2109C147.177 14.4083 147.058 14.507 147.039 14.507C146.881 14.507 146.506 14.3096 145.933 13.8754C145.48 14.2899 145.164 14.6254 145.006 14.8425C145.736 15.2767 146.151 15.4938 146.249 15.4938C146.23 15.4938 146.466 15.2965 146.94 14.9017Z" fill="#144992"/>
<path d="M146.467 13.7369C146.724 13.9541 146.882 14.0725 146.921 14.0725C147 14.0725 147.178 13.9738 147.415 13.7567C147.612 13.579 147.75 13.4409 147.809 13.3422C147.296 12.8291 147 12.5725 146.921 12.5527C146.349 12.9869 146.053 13.2435 146.053 13.3619C146.072 13.3817 146.191 13.5198 146.467 13.7369Z" fill="#144992"/>
<path d="M152.921 13.9537C152.447 13.6774 152.191 13.4603 152.151 13.3419C152.092 13.2235 152.072 13.0458 152.072 12.8485L151.994 12.7695C151.678 13.1248 151.322 13.6972 150.967 14.4866C151.105 14.684 151.263 14.8419 151.401 14.9406C151.5 15.1577 151.599 15.6708 151.717 16.4801C151.836 17.2893 151.915 17.8419 151.915 18.1182C151.915 18.1577 151.895 18.2169 151.855 18.2564H150.849H150.454C150 18.2564 149.783 17.9406 149.783 17.3485C149.783 17.309 149.803 17.2301 149.803 17.1314C149.803 17.0327 149.803 16.9537 149.783 16.9143C149.783 16.6577 149.763 16.4603 149.724 16.3024C149.605 16.3814 149.408 16.5787 149.151 16.8945C148.895 17.2301 148.757 17.4472 148.757 17.5656C148.757 17.6248 148.776 17.7037 148.796 17.8222C148.836 17.9406 148.836 18.0195 148.836 18.0787C148.836 18.138 148.816 18.1972 148.757 18.2564C148.086 18.2169 147.711 18.2169 147.651 18.2564C147.809 17.5853 147.888 16.934 147.888 16.3222C147.888 16.2827 147.869 16.2235 147.849 16.1643C147.691 16.3024 147.494 16.5393 147.217 16.8945C146.921 17.309 146.783 17.5656 146.783 17.7037C146.783 17.9603 146.724 18.1577 146.645 18.2366H146.072H145.461H145.342C145.638 17.388 145.776 16.8353 145.776 16.559L145.737 16.184C145.599 16.2432 145.382 16.4406 145.105 16.7564C144.829 17.0919 144.691 17.309 144.691 17.4472C144.691 17.7235 144.632 17.9801 144.494 18.2169H143.329H143.092C142.48 18.2169 142.026 17.9998 141.691 17.5853C141.415 17.1511 141.119 16.6972 140.822 16.263C140.744 16.3616 140.586 16.5985 140.349 16.9932C140.112 17.388 140.013 17.6051 140.013 17.6643C140.013 17.684 140.151 17.8814 140.428 18.2564C140.704 18.6314 140.862 18.888 140.862 19.0458C140.862 19.4011 140.447 19.8353 139.638 20.3682C138.829 20.9208 138.217 21.1972 137.803 21.1972C137.526 21.1972 137.211 21.0985 136.875 20.8814C136.52 20.684 136.362 20.5853 136.382 20.5853C136.322 20.5853 136.303 20.5853 136.303 20.6248V20.8024C136.559 21.0985 137.033 21.4143 137.724 21.7695C138.415 22.1051 138.928 22.2827 139.283 22.2827C139.836 22.2827 140.329 21.9669 140.783 21.3353C141.079 20.7827 141.395 20.2498 141.691 19.7366L141.77 19.6577C142.026 19.7761 142.204 19.8353 142.342 19.8353H142.915H143.408H144.197C144.276 19.8353 144.375 19.7761 144.494 19.6577C144.592 19.5393 144.671 19.4603 144.711 19.4208C144.79 19.5787 144.849 19.7169 144.849 19.8353H145.54H146.151H146.586C146.625 19.8353 146.665 19.7958 146.763 19.7169C146.842 19.6182 146.901 19.5787 146.921 19.5787C147 19.5787 147.079 19.6774 147.217 19.8353H149.171C149.29 19.6577 149.408 19.5195 149.467 19.4208C149.546 19.5985 149.625 19.7366 149.665 19.8353H150.355H150.888H152.309C152.447 19.7564 152.526 19.7169 152.546 19.6972C152.605 19.6182 152.704 19.3222 152.803 18.8287C152.921 18.3156 152.961 18.0195 152.941 17.9011L152.763 15.9077L153.908 14.4472C153.612 14.3287 153.296 14.1708 152.921 13.9537Z" fill="#144992"/>
<path d="M156.158 13.3623C155.625 14.1123 155.25 14.7439 155.072 15.2965L155.743 20.0136C156.316 19.3426 156.592 18.5136 156.592 17.5268C156.592 16.6386 156.454 15.257 156.158 13.3623Z" fill="#144992"/>
<path d="M67.6583 28.0654H66.4346V29.2102H67.6583V28.0654Z" fill="#144992"/>
<path d="M97.6184 28.0654H96.375V29.2102H97.6184V28.0654Z" fill="#144992"/>
<path d="M105.079 28.0654H103.855V29.2102H105.079V28.0654Z" fill="#144992"/>
<path d="M48.4345 30.9676C48.1384 30.8097 47.6647 30.6518 47.0332 30.5136C46.4016 30.3557 46.0068 30.2176 45.8489 30.0794C45.7305 29.961 45.6516 29.8426 45.6516 29.6847C45.6516 29.5268 45.7108 29.3886 45.8489 29.2899C46.066 29.132 46.3621 29.0531 46.7371 29.0531C47.0924 29.0531 47.3884 29.132 47.5463 29.2702C47.7239 29.4084 47.8424 29.6452 47.9016 29.9807L49.2042 29.9413C49.1845 29.3491 48.9674 28.8755 48.5529 28.5202C48.1384 28.1649 47.5463 27.9873 46.7371 27.9873C46.2437 27.9873 45.8292 28.0663 45.4739 28.2241C45.1384 28.382 44.8621 28.5991 44.6845 28.8755C44.4871 29.1518 44.3884 29.4676 44.3884 29.8031C44.3884 30.3163 44.5858 30.7307 44.9805 31.086C45.2568 31.3426 45.7503 31.5399 46.441 31.7176C46.9937 31.836 47.3292 31.9347 47.4674 31.9939C47.6845 32.0728 47.8424 32.1715 47.941 32.2702C48.02 32.3689 48.0595 32.507 48.0595 32.6452C48.0595 32.882 47.9608 33.0794 47.7437 33.257C47.5266 33.4347 47.2108 33.5136 46.7963 33.5136C46.4016 33.5136 46.1055 33.4149 45.8489 33.2176C45.6318 33.0202 45.4739 32.7044 45.395 32.2702L44.1318 32.3886C44.2108 33.1189 44.4674 33.6518 44.9016 34.0465C45.3358 34.4215 45.9674 34.6189 46.7766 34.6189C47.3292 34.6189 47.8029 34.5399 48.1582 34.382C48.5332 34.2241 48.8292 33.9873 49.0463 33.6715C49.2437 33.3557 49.3424 33.0005 49.3424 32.6452C49.3424 32.2505 49.2634 31.8952 49.0858 31.6189C48.9674 31.3426 48.7305 31.1452 48.4345 30.9676Z" fill="#144992"/>
<path d="M53.0532 32.527C53.0532 32.8231 53.0335 33.0205 52.994 33.1389C52.9546 33.2968 52.8559 33.4349 52.698 33.5534C52.5006 33.6915 52.2835 33.7705 52.0664 33.7705C51.869 33.7705 51.6914 33.7112 51.573 33.5731C51.4546 33.4547 51.3756 33.2968 51.3756 33.1389C51.3756 32.9612 51.4743 32.8231 51.6125 32.7047C51.7111 32.6257 51.9282 32.5665 52.2835 32.4876C52.619 32.4284 52.8559 32.3494 53.0335 32.2902V32.527H53.0532ZM54.2572 32.981L54.2769 31.5402C54.2769 31.0073 54.2177 30.6323 54.119 30.4349C54.0006 30.2376 53.823 30.0599 53.5467 29.9218C53.2901 29.8034 52.8756 29.7441 52.323 29.7441C51.7111 29.7441 51.2572 29.8428 50.9611 30.0599C50.6651 30.277 50.448 30.6126 50.3098 31.0665L51.4151 31.2639C51.494 31.0468 51.5927 30.8889 51.7309 30.8099C51.8493 30.731 52.0269 30.6915 52.244 30.6915C52.5598 30.6915 52.7769 30.7507 52.9151 30.8494C53.0335 30.9481 53.0927 31.1257 53.0927 31.3626V31.481C52.8756 31.5797 52.4809 31.6784 51.8888 31.7968C51.4743 31.8757 51.1388 31.9744 50.9217 32.0731C50.7046 32.1915 50.5269 32.3494 50.3888 32.5468C50.2506 32.7441 50.1914 33.0007 50.1914 33.2573C50.1914 33.652 50.3296 33.9876 50.6059 34.2441C50.8822 34.5007 51.2572 34.6389 51.7309 34.6389C52.0072 34.6389 52.244 34.5797 52.5006 34.481C52.7375 34.3823 52.9546 34.2244 53.1717 34.027C53.1717 34.0468 53.1914 34.0862 53.2111 34.1652C53.2506 34.3231 53.2901 34.4415 53.3296 34.5205H54.5532C54.4546 34.3034 54.3756 34.0862 54.3361 33.8889C54.2769 33.6915 54.2572 33.3955 54.2572 32.981Z" fill="#144992"/>
<path d="M58.4807 31.836C58.4807 32.507 58.4609 32.9215 58.382 33.0991C58.3228 33.2768 58.2044 33.4149 58.0465 33.5334C57.8688 33.6518 57.6912 33.711 57.4741 33.711C57.2965 33.711 57.1386 33.6715 57.0004 33.5728C56.882 33.4939 56.803 33.3755 56.7438 33.2373C56.7044 33.0794 56.6846 32.6649 56.6846 32.0136V29.8623H55.4609V32.8228C55.4609 33.257 55.5004 33.6123 55.6188 33.8491C55.7373 34.086 55.8951 34.3031 56.1517 34.4413C56.4083 34.5794 56.6846 34.6584 57.0004 34.6584C57.2965 34.6584 57.6123 34.5794 57.8886 34.4413C58.1649 34.2834 58.382 34.086 58.5596 33.8491V34.5399H59.7044V29.8623H58.4807V31.836Z" fill="#144992"/>
<path d="M63.7109 33.2963C63.5136 33.5331 63.257 33.6515 62.9807 33.6515C62.6254 33.6515 62.3491 33.4936 62.1517 33.1581C62.0136 32.941 61.9346 32.566 61.9346 32.0726C61.9346 31.5989 62.0333 31.2436 62.2307 31.0265C62.428 30.7897 62.6846 30.6713 62.9609 30.6713C63.257 30.6713 63.4938 30.7897 63.6912 31.0265C63.8886 31.2634 63.9873 31.6581 63.9873 32.191C64.007 32.7042 63.9083 33.0594 63.7109 33.2963ZM64.007 30.4147C63.632 29.9805 63.178 29.7634 62.6649 29.7634C62.0925 29.7634 61.6188 29.9805 61.2636 30.3752C60.8886 30.7897 60.7109 31.4015 60.7109 32.191C60.7109 32.9607 60.8886 33.5726 61.2833 34.0068C61.6583 34.441 62.1123 34.6581 62.6451 34.6581C62.9017 34.6581 63.178 34.5792 63.4346 34.441C63.6912 34.3028 63.9083 34.1055 64.1057 33.8489V34.5397H65.2504V28.1055H64.0267V30.4147H64.007Z" fill="#144992"/>
<path d="M67.6583 29.8418H66.4346V34.5194H67.6583V29.8418Z" fill="#144992"/>
<path d="M72.7302 31.6773H75.967V30.5917H72.7302V29.1707H76.1841V28.0654H71.4473V34.5194H76.3223V33.4141H72.7302V31.6773Z" fill="#144992"/>
<path d="M78.6319 28.0654H77.4082V34.4996H78.6319V28.0654Z" fill="#144992"/>
<path d="M80.8425 31.7956C80.8425 31.4601 80.9214 31.1837 81.099 30.9864C81.2767 30.7693 81.4938 30.6903 81.7701 30.6903C82.0267 30.6903 82.2438 30.7693 82.4214 30.9666C82.599 31.1443 82.6977 31.4206 82.6977 31.7956H80.8425ZM83.3293 30.4535C82.9346 29.9995 82.3819 29.7627 81.6911 29.7627C81.0793 29.7627 80.5661 29.9798 80.1517 30.4337C79.7569 30.868 79.5596 31.4601 79.5596 32.2495C79.5596 32.9009 79.7175 33.4337 80.0135 33.8482C80.4083 34.3811 81.0004 34.6377 81.8096 34.6377C82.3425 34.6377 82.7569 34.5193 83.0925 34.2824C83.428 34.0456 83.6846 33.7101 83.8425 33.2561L82.6188 33.0587C82.5596 33.2956 82.4411 33.4732 82.3227 33.5719C82.2043 33.6903 82.0267 33.7298 81.8293 33.7298C81.553 33.7298 81.3161 33.6311 81.1188 33.4337C80.9214 33.2364 80.8227 32.9403 80.8227 32.5851H83.8819C83.9017 31.5982 83.724 30.9074 83.3293 30.4535Z" fill="#144992"/>
<path d="M87.4741 33.4345C87.336 33.5727 87.1386 33.6516 86.9018 33.6516C86.586 33.6516 86.3491 33.5332 86.1715 33.3161C85.9939 33.0793 85.8952 32.6845 85.8952 32.1319C85.8952 31.6385 85.9939 31.2832 86.1715 31.0661C86.3491 30.849 86.586 30.7503 86.9018 30.7503C87.1189 30.7503 87.3163 30.8095 87.4544 30.9279C87.5926 31.0464 87.6912 31.224 87.7307 31.4608L88.9544 31.2437C88.7965 30.7503 88.5794 30.3753 88.2241 30.1385C87.8886 29.9016 87.4544 29.7832 86.8623 29.7832C86.1715 29.7832 85.6189 30.0003 85.2241 30.4345C84.8097 30.8687 84.6123 31.4608 84.6123 32.2306C84.6123 33.0003 84.8097 33.5924 85.2241 34.0266C85.6189 34.4608 86.1715 34.6779 86.8426 34.6779C87.4347 34.6779 87.9084 34.5398 88.2636 34.2437C88.6189 33.9674 88.8755 33.5332 88.9939 32.9806L87.7702 32.7832C87.7307 33.0595 87.632 33.2964 87.4741 33.4345Z" fill="#144992"/>
<path d="M91.5398 33.6118C91.4608 33.6118 91.3819 33.5921 91.3227 33.5526C91.2635 33.5131 91.2437 33.4539 91.224 33.3947C91.2043 33.3157 91.2043 33.0986 91.2043 32.7236V30.8289H92.0529V29.8618H91.2043V28.2236L89.9608 28.9342V29.8618H89.4082V30.8289H89.9608V32.8815C89.9608 33.3157 89.9806 33.6118 90.0003 33.7499C90.0398 33.9473 90.099 34.1052 90.1779 34.2434C90.2569 34.3618 90.395 34.4605 90.5529 34.5394C90.7306 34.6184 90.9279 34.6578 91.145 34.6578C91.52 34.6578 91.8358 34.5986 92.1122 34.4605L92.0332 33.4934C91.8358 33.5723 91.6582 33.6118 91.5398 33.6118Z" fill="#144992"/>
<path d="M94.5007 29.9011C94.3428 29.9997 94.1849 30.1971 93.9875 30.5129V29.8418H92.8428V34.4997H94.0665V33.059C94.0665 32.2695 94.1059 31.7563 94.1651 31.4997C94.2244 31.2629 94.323 31.0853 94.4415 30.9866C94.5599 30.8879 94.7178 30.8484 94.8757 30.8484C95.0533 30.8484 95.2309 30.9076 95.448 31.0458L95.823 29.9603C95.5467 29.8024 95.3099 29.7432 95.0138 29.7432C94.8362 29.7629 94.6586 29.8024 94.5007 29.9011Z" fill="#144992"/>
<path d="M97.6184 29.8418H96.375V34.5194H97.6184V29.8418Z" fill="#144992"/>
<path d="M101.448 33.4345C101.31 33.5727 101.112 33.6516 100.875 33.6516C100.56 33.6516 100.323 33.5332 100.125 33.3161C99.9478 33.0793 99.8491 32.6845 99.8491 32.1319C99.8491 31.6385 99.928 31.2832 100.125 31.0661C100.303 30.849 100.56 30.7503 100.856 30.7503C101.073 30.7503 101.27 30.8095 101.408 30.9279C101.566 31.0464 101.645 31.224 101.685 31.4608L102.908 31.2437C102.77 30.7503 102.514 30.3753 102.198 30.1385C101.862 29.9016 101.408 29.7832 100.836 29.7832C100.145 29.7832 99.5925 30.0003 99.1978 30.4345C98.803 30.8687 98.5859 31.4608 98.5859 32.2306C98.5859 33.0003 98.803 33.5924 99.1978 34.0266C99.6123 34.4608 100.145 34.6779 100.836 34.6779C101.428 34.6779 101.902 34.5398 102.257 34.2437C102.612 33.9674 102.849 33.5332 102.987 32.9806L101.764 32.7832C101.704 33.0595 101.606 33.2964 101.448 33.4345Z" fill="#144992"/>
<path d="M105.079 29.8418H103.855V34.5194H105.079V29.8418Z" fill="#144992"/>
<path d="M108.02 33.6118C107.941 33.6118 107.862 33.5921 107.803 33.5526C107.743 33.5131 107.704 33.4539 107.684 33.3947C107.664 33.3157 107.664 33.0986 107.664 32.7236V30.8289H108.513V29.8618H107.664V28.2236L106.421 28.9342V29.8618H105.849V30.8289H106.421V32.8815C106.421 33.3157 106.441 33.6118 106.46 33.7499C106.5 33.9473 106.539 34.1052 106.618 34.2434C106.717 34.3618 106.835 34.4605 107.013 34.5394C107.191 34.6184 107.388 34.6578 107.605 34.6578C107.96 34.6578 108.296 34.5986 108.572 34.4605L108.493 33.4934C108.296 33.5723 108.118 33.6118 108.02 33.6118Z" fill="#144992"/>
<path d="M111.158 33.1576L110.053 29.8418H108.75L110.507 34.5194C110.428 34.776 110.329 34.9931 110.191 35.1707C110.072 35.3286 109.855 35.4273 109.579 35.4273C109.421 35.4273 109.243 35.4076 109.046 35.3681L109.164 36.3352C109.382 36.3747 109.618 36.4142 109.855 36.4142C110.092 36.4142 110.289 36.3944 110.487 36.3352C110.684 36.276 110.822 36.2168 110.961 36.1181C111.079 36.0194 111.197 35.901 111.296 35.7629C111.395 35.6247 111.493 35.4273 111.612 35.151L111.928 34.3221L113.566 29.8418H112.283L111.158 33.1576Z" fill="#144992"/>
<path d="M120.415 33.1773C120.158 33.3944 119.862 33.5129 119.527 33.5129C119.073 33.5129 118.678 33.3352 118.382 32.9997C118.106 32.6642 117.948 32.0721 117.948 31.2628C117.948 30.4931 118.106 29.9405 118.382 29.5852C118.678 29.2497 119.073 29.0721 119.546 29.0721C119.882 29.0721 120.178 29.1707 120.435 29.3681C120.691 29.5655 120.829 29.8221 120.908 30.1576L122.191 29.8418C122.053 29.3286 121.816 28.9339 121.54 28.6773C121.046 28.2036 120.395 27.9668 119.606 27.9668C118.698 27.9668 117.987 28.2628 117.415 28.855C116.862 29.4471 116.586 30.276 116.586 31.3418C116.586 32.3484 116.862 33.1576 117.415 33.73C117.968 34.3023 118.658 34.5984 119.527 34.5984C120.218 34.5984 120.79 34.4207 121.244 34.0852C121.698 33.73 122.014 33.2168 122.211 32.5063L120.948 32.1115C120.849 32.6247 120.671 32.9602 120.415 33.1773Z" fill="#144992"/>
<path d="M126.237 33.2571C126.02 33.5137 125.743 33.6321 125.428 33.6321C125.112 33.6321 124.836 33.5137 124.618 33.2571C124.401 33.0203 124.283 32.665 124.283 32.1913C124.283 31.7374 124.382 31.3624 124.618 31.1255C124.836 30.8887 125.112 30.7702 125.428 30.7702C125.743 30.7702 126.02 30.8887 126.237 31.1255C126.454 31.3624 126.572 31.7374 126.572 32.1913C126.553 32.665 126.454 33.0203 126.237 33.2571ZM125.408 29.7637C124.954 29.7637 124.539 29.8624 124.164 30.0597C123.789 30.2571 123.513 30.5531 123.316 30.9281C123.118 31.3031 123 31.7176 123 32.1321C123 32.665 123.099 33.1189 123.316 33.4939C123.513 33.8689 123.809 34.1453 124.204 34.3426C124.599 34.54 125.013 34.6387 125.428 34.6387C126.118 34.6387 126.691 34.4018 127.145 33.9281C127.599 33.4545 127.836 32.8821 127.836 32.1716C127.836 31.4808 127.618 30.8887 127.164 30.4347C126.711 29.9808 126.118 29.7637 125.408 29.7637Z" fill="#144992"/>
<path d="M134.901 29.961C134.665 29.8229 134.369 29.7637 134.033 29.7637C133.776 29.7637 133.52 29.8229 133.283 29.961C133.046 30.0795 132.829 30.2571 132.612 30.5137C132.474 30.2768 132.296 30.0795 132.079 29.961C131.862 29.8426 131.605 29.7637 131.309 29.7637C130.757 29.7637 130.263 30.0005 129.849 30.4939V29.8624H128.704V34.5202H129.928V32.2505C129.928 31.7966 129.948 31.4808 130.026 31.2834C130.105 31.086 130.204 30.9479 130.362 30.8492C130.52 30.7505 130.698 30.6913 130.875 30.6913C131.033 30.6913 131.151 30.711 131.25 30.79C131.329 30.8492 131.408 30.9479 131.448 31.086C131.507 31.2045 131.507 31.5005 131.507 31.9545V34.5005H132.75V32.2505C132.75 31.8163 132.79 31.4808 132.849 31.2834C132.908 31.086 133.007 30.9479 133.165 30.8295C133.323 30.7308 133.48 30.6716 133.658 30.6716C133.895 30.6716 134.073 30.7505 134.191 30.9281C134.27 31.0663 134.309 31.3624 134.309 31.8163V34.4808H135.553V31.5005C135.553 31.0466 135.513 30.7308 135.415 30.5334C135.316 30.3163 135.138 30.0992 134.901 29.961Z" fill="#144992"/>
<path d="M139.757 33.3163C139.56 33.5531 139.323 33.6518 139.047 33.6518C138.731 33.6518 138.494 33.5334 138.277 33.2768C138.06 33.0203 137.961 32.6255 137.961 32.1124C137.961 31.6584 138.06 31.3031 138.257 31.0663C138.454 30.8295 138.711 30.711 139.007 30.711C139.283 30.711 139.54 30.8295 139.737 31.0663C139.935 31.3031 140.033 31.6584 140.033 32.1518C140.033 32.7045 139.935 33.0795 139.757 33.3163ZM139.343 29.7637C139.027 29.7637 138.75 29.8426 138.494 29.9808C138.237 30.1189 138.04 30.2966 137.882 30.5334V29.8624H136.737V36.2966H137.961V33.9479C138.198 34.2045 138.415 34.3624 138.632 34.461C138.829 34.5597 139.066 34.6189 139.343 34.6189C139.875 34.6189 140.349 34.4018 140.724 33.9676C141.099 33.5334 141.297 32.9216 141.297 32.1518C141.297 31.3821 141.099 30.79 140.724 30.3755C140.349 29.9808 139.895 29.7637 139.343 29.7637Z" fill="#144992"/>
<path d="M144.829 32.5261C144.829 32.8221 144.809 33.0195 144.77 33.1379C144.73 33.2958 144.631 33.434 144.493 33.5524C144.276 33.6905 144.079 33.7695 143.862 33.7695C143.664 33.7695 143.506 33.7103 143.368 33.5721C143.23 33.4537 143.171 33.2958 143.171 33.1379C143.171 32.9603 143.25 32.8221 143.408 32.7037C143.506 32.6247 143.743 32.5655 144.079 32.4866C144.414 32.4274 144.671 32.3484 144.829 32.2892V32.5261ZM146.033 32.98L146.053 31.5392C146.053 31.0063 145.993 30.6313 145.895 30.434C145.776 30.2366 145.599 30.059 145.322 29.9208C145.046 29.8024 144.651 29.7432 144.079 29.7432C143.487 29.7432 143.013 29.8418 142.717 30.059C142.401 30.2761 142.204 30.6116 142.066 31.0655L143.171 31.2629C143.25 31.0458 143.349 30.8879 143.467 30.809C143.585 30.73 143.763 30.6905 143.98 30.6905C144.316 30.6905 144.533 30.7497 144.651 30.8484C144.77 30.9471 144.829 31.1247 144.829 31.3616V31.48C144.612 31.5787 144.197 31.6774 143.625 31.7958C143.191 31.8747 142.895 31.9734 142.658 32.0721C142.441 32.1905 142.263 32.3484 142.145 32.5458C142.026 32.7432 141.947 32.9997 141.947 33.2563C141.947 33.6511 142.085 33.9866 142.362 34.2432C142.638 34.4997 143.033 34.6379 143.487 34.6379C143.763 34.6379 144 34.5787 144.256 34.48C144.493 34.3813 144.71 34.2234 144.928 34.0261C144.947 34.0458 144.947 34.0853 144.967 34.1642C145.006 34.3221 145.046 34.4405 145.085 34.5195H146.309C146.191 34.3024 146.131 34.0853 146.092 33.8879C146.033 33.6905 146.033 33.3945 146.033 32.98Z" fill="#144992"/>
<path d="M151.165 30.2768C151.047 30.1189 150.889 30.0203 150.652 29.9018C150.415 29.8031 150.178 29.7637 149.902 29.7637C149.29 29.7637 148.777 30.0202 148.382 30.5334V29.8426H147.237V34.5202H148.481V32.4084C148.481 31.8952 148.5 31.54 148.579 31.3426C148.639 31.165 148.757 30.9874 148.915 30.8689C149.073 30.7505 149.27 30.6913 149.487 30.6913C149.645 30.6913 149.783 30.7308 149.902 30.8097C150.02 30.8887 150.099 31.0071 150.158 31.165C150.198 31.3031 150.237 31.6387 150.237 32.1518V34.5202H151.461V31.6387C151.461 31.2834 151.422 31.0071 151.402 30.8097C151.362 30.5926 151.283 30.4347 151.165 30.2768Z" fill="#144992"/>
<path d="M155.624 29.8418L154.539 33.1576L153.414 29.8418H152.111L153.868 34.5194C153.789 34.776 153.69 34.9931 153.552 35.1707C153.414 35.3286 153.197 35.4273 152.921 35.4273C152.763 35.4273 152.605 35.4076 152.407 35.3681L152.506 36.3352C152.723 36.3747 152.96 36.3944 153.197 36.3944C153.434 36.3944 153.631 36.3747 153.828 36.3352C154.026 36.276 154.184 36.1971 154.302 36.1181C154.421 36.0194 154.539 35.901 154.638 35.7628C154.736 35.6247 154.835 35.4273 154.953 35.151L155.249 34.3221L156.888 29.8418H155.624Z" fill="#144992"/>
</g>
<defs>
<clipPath id="clip0_331_51399">
<rect width="156.908" height="48" fill="white"/>
</clipPath>
</defs>
</svg>
