<?xml version="1.0" standalone="no"?>
<!DOCTYPE svg PUBLIC "-//W3C//DTD SVG 1.1//EN" "http://www.w3.org/Graphics/SVG/1.1/DTD/svg11.dtd" >
<svg xmlns="http://www.w3.org/2000/svg">
<metadata>Generated by IcoMoon</metadata>
<defs>
<font id="icomoon" horiz-adv-x="1024">
<font-face units-per-em="1024" ascent="960" descent="-64" />
<missing-glyph horiz-adv-x="1024" />
<glyph unicode="&#x20;" horiz-adv-x="512" d="" />
<glyph unicode="&#xe900;" glyph-name="user-plus" d="M426.667 796.373c-86.361 0-156.372-70.010-156.372-156.373s70.011-156.373 156.372-156.373c86.366 0 156.373 70.010 156.373 156.373s-70.007 156.373-156.373 156.373zM199.041 640c0 125.715 101.912 227.627 227.625 227.627 125.717 0 227.627-101.912 227.627-227.627 0-125.713-101.909-227.626-227.627-227.626-125.713 0-227.625 101.914-227.625 227.626zM810.667 355.627c19.678 0 35.627-15.953 35.627-35.627v-92.373h92.373c19.678 0 35.627-15.953 35.627-35.627 0-19.678-15.949-35.627-35.627-35.627h-92.373v-92.373c0-19.678-15.949-35.627-35.627-35.627-19.674 0-35.627 15.949-35.627 35.627v92.373h-92.373c-19.674 0-35.627 15.949-35.627 35.627 0 19.674 15.953 35.627 35.627 35.627h92.373v92.373c0 19.674 15.953 35.627 35.627 35.627zM313.424 334.293c2.162 0 4.354 0 6.577 0h191.998c19.678 0 35.627-15.953 35.627-35.627 0-19.678-15.949-35.627-35.627-35.627h-191.998c-62.136 0-85.306-0.388-103.2-5.815-43.159-13.090-76.933-46.865-90.025-90.027-5.428-17.89-5.815-41.062-5.815-103.198 0-19.678-15.951-35.627-35.627-35.627s-35.627 15.949-35.627 35.627c0 2.223 0 4.416-0.001 6.575-0.014 53.21-0.023 87.945 8.884 117.308 20 65.933 71.595 117.525 137.526 137.527 29.365 8.909 64.101 8.9 117.307 8.883z" />
<glyph unicode="&#xe901;" glyph-name="add" d="M220.374 448c0 19.678 15.951 35.627 35.627 35.627h512c19.678 0 35.627-15.949 35.627-35.627s-15.949-35.627-35.627-35.627h-512c-19.676 0-35.627 15.949-35.627 35.627zM512 739.627c19.678 0 35.627-15.951 35.627-35.627v-512c0-19.678-15.949-35.627-35.627-35.627-19.674 0-35.627 15.949-35.627 35.627v512c0 19.676 15.953 35.627 35.627 35.627z" />
<glyph unicode="&#xe902;" glyph-name="dashboard" d="M510.481 827.488c-0.358-0.181-1.203-0.645-2.701-1.647-3.469-2.316-7.923-5.754-15.821-11.895l-289.376-225.072c-20.936-16.284-25.837-20.487-29.213-25.052-3.596-4.861-6.274-10.337-7.904-16.159-1.53-5.467-1.84-11.916-1.84-38.441v-308.689c0-24.482 0.028-40.704 1.044-53.146 0.983-12.028 2.708-17.353 4.373-20.621 4.765-9.353 12.37-16.956 21.722-21.722 3.267-1.664 8.594-3.392 20.621-4.373 12.442-1.015 28.662-1.045 53.146-1.045h494.933c24.482 0 40.704 0.030 53.146 1.045 12.028 0.981 17.353 2.709 20.621 4.373 9.353 4.766 16.956 12.369 21.722 21.722 1.668 3.268 3.392 8.593 4.373 20.621 1.020 12.442 1.045 28.663 1.045 53.146v308.689c0 26.525-0.307 32.974-1.839 38.441-1.63 5.822-4.309 11.299-7.902 16.159-3.379 4.565-8.277 8.768-29.214 25.052l-289.378 225.072c-7.898 6.141-12.352 9.579-15.817 11.895-1.502 1.002-2.347 1.466-2.705 1.647-0.998 0.221-2.035 0.221-3.038 0zM513.314 827.585c0 0 0.017-0.005 0.043-0.018zM510.639 827.565c0.030 0.015 0.047 0.021 0.047 0.020zM491.537 896.186c13.402 3.628 27.524 3.628 40.926 0 15.484-4.192 28.599-14.466 40.226-23.575 1.045-0.818 2.074-1.626 3.098-2.42l289.378-225.072c1.024-0.799 2.044-1.588 3.046-2.369 16.363-12.704 29.756-23.105 39.706-36.556 8.751-11.829 15.266-25.155 19.234-39.324 4.51-16.111 4.493-33.070 4.48-53.786-0.004-1.271-0.004-2.56-0.004-3.861v-310.11c0-22.686 0-41.839-1.28-57.527-1.344-16.431-4.267-32.179-11.904-47.168-11.597-22.758-30.101-41.263-52.86-52.86-14.989-7.637-30.737-10.56-47.168-11.904-15.689-1.28-34.842-1.28-57.523-1.28h-497.78c-22.685 0-41.836 0-57.525 1.28-16.433 1.344-32.18 4.267-47.167 11.904-22.76 11.597-41.265 30.101-52.861 52.86-7.636 14.989-10.56 30.737-11.903 47.168-1.282 15.693-1.281 34.842-1.281 57.527v310.11c0 1.301-0.001 2.59-0.002 3.861-0.017 20.716-0.030 37.676 4.48 53.786 3.966 14.169 10.483 27.495 19.232 39.324 9.949 13.451 23.344 23.852 39.705 36.556 1.005 0.781 2.022 1.57 3.049 2.369l289.38 225.072c1.020 0.794 2.052 1.602 3.093 2.42 11.631 9.109 24.742 19.383 40.226 23.575zM305.707 234.667c0 19.678 15.951 35.627 35.627 35.627h341.333c19.678 0 35.627-15.949 35.627-35.627s-15.949-35.627-35.627-35.627h-341.333c-19.676 0-35.627 15.949-35.627 35.627z" />
<glyph unicode="&#xe903;" glyph-name="bell" d="M305.789 824.878c54.691 54.691 128.865 85.416 206.211 85.416s151.522-30.725 206.212-85.416c54.69-54.691 85.414-128.867 85.414-206.211 0-125.525 31.565-209.22 65.037-263.010l0.431-0.691c15.309-24.602 27.307-43.887 35.371-57.882 4.041-7.006 7.616-13.577 10.219-19.311 1.297-2.863 2.692-6.242 3.763-9.843 0.905-3.025 2.517-9.178 1.911-16.572-0.452-5.517-1.54-14.289-6.528-23.27-4.992-8.981-11.861-14.537-16.307-17.835-9.25-6.861-20.058-8.465-24.009-9.050l-0.055-0.009c-5.909-0.875-12.745-1.327-19.87-1.604-14.161-0.55-33.852-0.55-58.611-0.55h-565.956c-24.76 0-44.449 0-58.614 0.55-7.123 0.277-13.96 0.73-19.869 1.604l-0.052 0.009c-3.951 0.585-14.759 2.189-24.010 9.050-4.445 3.298-11.316 8.853-16.306 17.835s-6.078 17.754-6.529 23.27c-0.605 7.394 1.007 13.547 1.909 16.572 1.073 3.601 2.467 6.98 3.766 9.843 2.603 5.734 6.176 12.305 10.216 19.311 8.065 13.995 20.067 33.284 35.377 57.886l0.428 0.687c33.469 53.79 65.036 137.485 65.036 263.010 0 77.344 30.725 151.52 85.415 206.211zM512 839.040c-58.445 0-114.5-23.218-155.828-64.546s-64.546-97.381-64.546-155.828c0-138.172-34.953-235.021-75.792-300.655-12.452-20.011-22.136-35.58-29.298-47.552 11.26-0.162 25.515-0.166 43.388-0.166h564.149c17.873 0 32.128 0.004 43.388 0.166-7.159 11.972-16.845 27.541-29.295 47.552-40.841 65.634-75.793 162.483-75.793 300.655 0 58.447-23.219 114.499-64.546 155.828s-97.382 64.546-155.827 64.546zM372.401 87.573c13.020 14.754 35.534 16.158 50.286 3.136 23.828-21.030 55.039-33.749 89.313-33.749 34.27 0 65.485 12.719 89.314 33.749 14.75 13.022 37.265 11.618 50.287-3.136 13.018-14.75 11.614-37.265-3.136-50.283-36.348-32.081-84.173-51.584-136.465-51.584s-100.119 19.503-136.464 51.584c-14.752 13.018-16.155 35.533-3.135 50.283z" />
<glyph unicode="&#xe904;" glyph-name="calendar" d="M341.332 910.294c19.676 0 35.627-15.951 35.627-35.627v-49.707h270.081v49.707c0 19.676 15.949 35.627 35.627 35.627 19.674 0 35.627-15.951 35.627-35.627v-49.739c23.185-0.092 42.982-0.45 59.878-1.83 23.548-1.924 44.561-6.011 64.111-15.972 30.788-15.688 55.821-40.719 71.509-71.508 9.963-19.55 14.046-40.566 15.97-64.113 1.865-22.801 1.865-50.899 1.865-85.463v-361.42c0-34.56 0-62.66-1.865-85.461-1.924-23.548-6.007-44.561-15.97-64.111-15.689-30.788-40.721-55.821-71.509-71.509-19.55-9.963-40.563-14.050-64.111-15.97-22.801-1.865-50.901-1.865-85.47-1.865h-361.407c-34.566 0-62.665 0-85.467 1.865-23.547 1.92-44.564 6.007-64.114 15.97-30.788 15.689-55.82 40.721-71.507 71.509-9.961 19.55-14.048 40.563-15.972 64.111-1.863 22.801-1.862 50.901-1.862 85.466v361.413c0 34.565-0.001 62.664 1.862 85.465 1.924 23.547 6.011 44.564 15.972 64.113 15.687 30.788 40.719 55.82 71.507 71.508 19.55 9.961 40.567 14.048 64.114 15.972 16.893 1.38 36.694 1.738 59.878 1.83v49.739c0 19.676 15.951 35.627 35.627 35.627zM305.706 753.671c-22.492-0.093-39.785-0.422-54.076-1.589-19.141-1.564-29.737-4.453-37.568-8.442-17.381-8.856-31.512-22.988-40.369-40.369-3.99-7.831-6.879-18.427-8.442-37.568-1.598-19.557-1.626-44.738-1.626-81.169v-15.573h696.748v15.573c0 36.431-0.030 61.612-1.626 81.169-1.566 19.141-4.454 29.737-8.444 37.568-8.858 17.381-22.989 31.512-40.367 40.369-7.834 3.99-18.428 6.878-37.568 8.442-14.293 1.167-31.586 1.497-54.076 1.589v-49.67c0-19.676-15.953-35.627-35.627-35.627-19.678 0-35.627 15.951-35.627 35.627v49.707h-270.081v-49.707c0-19.676-15.951-35.627-35.627-35.627s-35.627 15.951-35.627 35.627v49.67zM860.373 497.707h-696.748v-271.573c0-36.433 0.028-61.611 1.626-81.169 1.564-19.14 4.452-29.734 8.442-37.568 8.856-17.382 22.988-31.514 40.369-40.367 7.831-3.989 18.426-6.878 37.568-8.444 19.557-1.596 44.738-1.626 81.169-1.626h358.401c36.429 0 61.611 0.030 81.169 1.626 19.14 1.566 29.734 4.454 37.568 8.444 17.378 8.853 31.509 22.985 40.367 40.367 3.989 7.834 6.878 18.428 8.444 37.568 1.596 19.558 1.626 44.736 1.626 81.169v271.573z" />
<glyph unicode="&#xe905;" glyph-name="chevron-down" d="M222.059 609.941c18.745 18.745 49.137 18.745 67.883 0l222.059-222.059 222.059 222.059c18.743 18.745 49.139 18.745 67.883 0s18.743-49.137 0-67.883l-256-256c-18.743-18.743-49.139-18.743-67.883 0l-256 256c-18.745 18.745-18.745 49.137 0 67.883z" />
<glyph unicode="&#xe906;" glyph-name="broadcasting" d="M817.758 840.534c-42.236 0-78.153-27.456-90.91-65.446l-332.628-134.942h-162.74c-66.47 0-120.548-54.078-120.548-120.551v-80.431c0-66.47 54.078-120.55 120.548-120.55h18.408v-171.951c0-50.334 40.952-91.285 91.288-91.285 50.334 0 91.284 40.951 91.284 91.285v156.437l297.254-120.593c14.737-34.044 48.644-57.933 88.043-57.933 52.873 0 95.889 43.017 95.889 95.893v524.175c0 52.874-43.017 95.892-95.889 95.892zM432.461 586.594l289.404 117.406v-449.242l-289.404 117.406v214.429zM174.932 439.164v80.431c0 31.181 25.368 56.549 56.548 56.549h136.982v-193.53h-136.982c-31.18 0.004-56.548 25.37-56.548 56.55zM341.176 119.377c-15.046 0-27.286 12.241-27.286 27.29v171.951h54.574v-171.951c-0.002-15.049-12.242-27.29-27.288-27.29zM849.647 220.471c0-17.587-14.306-31.893-31.893-31.893s-31.893 14.306-31.893 31.893v524.17c0 17.584 14.306 31.892 31.893 31.892 17.583 0 31.889-14.306 31.889-31.892l0.004-524.17z" />
<glyph unicode="&#xe907;" glyph-name="close" d="M230.859 729.142c13.885 13.885 36.398 13.885 50.284 0l230.857-230.859 230.861 230.859c13.884 13.885 36.395 13.885 50.283 0 13.884-13.885 13.884-36.398 0-50.283l-230.861-230.859 230.861-230.857c13.884-13.888 13.884-36.399 0-50.287-13.888-13.884-36.399-13.884-50.283 0l-230.861 230.861-230.857-230.861c-13.885-13.884-36.398-13.884-50.284 0-13.885 13.888-13.885 36.399 0 50.287l230.858 230.857-230.858 230.859c-13.885 13.885-13.885 36.398 0 50.283z" />
<glyph unicode="&#xe908;" glyph-name="escalation" d="M426.667 802.311c-89.642 0-162.311-72.669-162.311-162.311s72.669-162.313 162.311-162.313c89.643 0 162.313 72.67 162.313 162.313s-72.67 162.311-162.313 162.311zM204.978 640c0 122.435 99.254 221.689 221.689 221.689s221.687-99.253 221.687-221.689-99.251-221.687-221.687-221.687c-122.435 0-221.689 99.251-221.689 221.687zM789.675 340.992c11.593 11.597 30.391 11.597 41.984 0l128-128c11.597-11.593 11.597-30.391 0-41.984-11.593-11.597-30.391-11.597-41.984 0l-77.321 77.316v-184.324c0-16.397-13.291-29.687-29.687-29.687s-29.687 13.291-29.687 29.687v184.324l-77.321-77.316c-11.593-11.597-30.391-11.597-41.984 0-11.597 11.593-11.597 30.391 0 41.984l128 128zM314.219 328.354c1.902 0 3.829 0 5.781 0h192c16.397 0 29.687-13.291 29.687-29.687s-13.291-29.687-29.687-29.687h-192c-61.704 0-85.975-0.324-104.924-6.071-45.056-13.67-80.315-48.926-93.983-93.982-5.748-18.953-6.071-43.221-6.071-104.926 0-16.397-13.292-29.687-29.689-29.687s-29.689 13.291-29.689 29.687c0 1.954 0 3.878-0.001 5.781-0.010 53.995-0.017 87.881 8.628 116.378 19.425 64.034 69.534 114.146 133.568 133.568 28.499 8.644 62.383 8.64 116.379 8.627z" />
<glyph unicode="&#xe909;" glyph-name="eye" d="M128.031 448c25.799 40.444 71.929 103.889 135.46 158.121 68.114 58.144 151.431 101.78 248.509 101.78s180.395-43.637 248.508-101.78c63.531-54.231 109.662-117.677 135.462-158.121-25.801-40.444-71.932-103.889-135.462-158.123-68.113-58.142-151.428-101.777-248.508-101.777-97.078 0-180.395 43.635-248.509 101.777-63.531 54.234-109.661 117.679-135.46 158.123zM43.691 437.107c1.817-8.111 5.064-13.367 11.556-23.885 53.655-86.891 213.365-306.556 456.753-306.556s403.098 219.665 456.751 306.556c6.494 10.517 9.741 15.774 11.558 23.885 1.365 6.089 1.365 15.697 0 21.786-1.818 8.111-5.065 13.367-11.558 23.885-53.653 86.891-213.363 306.556-456.751 306.556s-403.098-219.665-456.753-306.556c-6.493-10.517-9.739-15.774-11.556-23.885-1.365-6.089-1.365-15.697 0-21.786zM512.017 540.373c-51.017 0-92.373-41.357-92.373-92.373s41.356-92.373 92.373-92.373c51.017 0 92.373 41.357 92.373 92.373s-41.357 92.373-92.373 92.373zM348.391 448c0 90.368 73.258 163.627 163.626 163.627s163.627-73.258 163.627-163.627c0-90.368-73.259-163.627-163.627-163.627s-163.626 73.259-163.626 163.627z" />
<glyph unicode="&#xe90a;" glyph-name="filter-lines" d="M92.374 704c0 19.676 15.951 35.627 35.627 35.627h768c19.678 0 35.627-15.951 35.627-35.627s-15.949-35.627-35.627-35.627h-768c-19.676 0-35.627 15.951-35.627 35.627zM220.374 448c0 19.678 15.951 35.627 35.627 35.627h512c19.678 0 35.627-15.949 35.627-35.627s-15.949-35.627-35.627-35.627h-512c-19.676 0-35.627 15.949-35.627 35.627zM348.374 192c0 19.678 15.951 35.627 35.627 35.627h256c19.678 0 35.627-15.949 35.627-35.627s-15.949-35.627-35.627-35.627h-256c-19.676 0-35.627 15.949-35.627 35.627z" />
<glyph unicode="&#xe90b;" glyph-name="salary-issue" d="M220.649 819.022h497.371c22.861 0 41.801 0.001 57.246-1.261 16.064-1.313 30.946-4.137 44.954-11.276 21.645-11.028 39.241-28.624 50.266-50.266 7.138-14.010 9.963-28.889 11.277-44.955 1.263-15.445 1.263-34.385 1.263-57.245v-73.56c42.125-11.242 74.534-45.504 83.123-88.687 2.223-11.179 2.219-23.881 2.21-40.768 0-0.986 0-1.988 0-3.004s0-2.018 0-3.004c0.009-16.887 0.013-29.589-2.21-40.768-8.589-43.183-40.998-77.444-83.123-88.687v-73.562c0-22.857 0-41.801-1.263-57.246-1.314-16.064-4.139-30.942-11.277-44.954-11.025-21.641-28.621-39.236-50.266-50.266-14.007-7.138-28.89-9.963-44.954-11.277-15.445-1.263-34.385-1.259-57.246-1.259h-497.372c-22.859 0-41.8-0.004-57.245 1.259-16.065 1.314-30.945 4.139-44.954 11.277-21.643 11.029-39.239 28.625-50.266 50.266-7.139 14.012-9.963 28.89-11.276 44.954-1.262 15.445-1.262 34.389-1.261 57.246v412.039c0 22.859-0.001 41.801 1.261 57.246 1.312 16.065 4.137 30.945 11.276 44.954 11.028 21.643 28.624 39.239 50.266 50.266 14.010 7.139 28.889 9.963 44.954 11.276 15.445 1.262 34.387 1.262 57.246 1.261zM823.646 311.646h-76.979c-1.015 0-2.014 0-3.004-0.004-16.887-0.004-29.585-0.013-40.768 2.214-45.628 9.075-81.297 44.745-90.372 90.372-2.223 11.179-2.219 23.881-2.21 40.768 0 0.986 0 1.988 0 3.004s0 2.018 0 3.004c-0.009 16.887-0.013 29.589 2.21 40.768 9.075 45.629 44.745 81.297 90.372 90.374 11.179 2.224 23.881 2.218 40.768 2.211 0.986 0 1.988-0.001 3.004-0.001h76.979v68.445c0 24.385-0.021 40.889-1.062 53.629-1.015 12.393-2.842 18.589-5.001 22.833-5.338 10.47-13.85 18.983-24.32 24.318-4.245 2.162-10.441 3.988-22.831 5.001-12.74 1.041-29.244 1.064-53.632 1.064h-494.932c-24.385 0-40.889-0.023-53.629-1.064-12.393-1.013-18.589-2.839-22.833-5.001-10.47-5.335-18.982-13.847-24.317-24.317-2.162-4.244-3.988-10.44-5.001-22.833-1.041-12.74-1.064-29.244-1.064-53.629v-409.6c0-24.384 0.023-40.887 1.064-53.628 1.013-12.395 2.839-18.59 5.001-22.835 5.335-10.47 13.847-18.982 24.317-24.316 4.244-2.163 10.44-3.989 22.833-5.001 12.74-1.041 29.244-1.067 53.629-1.067h494.932c24.388 0 40.892 0.026 53.632 1.067 12.39 1.011 18.586 2.837 22.831 5.001 10.47 5.333 18.982 13.845 24.32 24.316 2.159 4.245 3.985 10.441 5.001 22.835 1.041 12.74 1.062 29.244 1.062 53.628v68.446zM746.667 524.979c-21.248 0-27.537-0.145-32.188-1.071-22.071-4.39-39.33-21.645-43.721-43.721-0.926-4.651-1.067-10.94-1.067-32.188s0.141-27.537 1.067-32.188c4.39-22.076 21.649-39.33 43.721-43.721 4.651-0.926 10.94-1.071 32.188-1.071h85.333c21.248 0 27.537 0.145 32.192 1.071 22.071 4.39 39.326 21.645 43.716 43.721 0.926 4.651 1.071 10.94 1.071 32.188s-0.145 27.537-1.071 32.188c-4.39 22.076-21.645 39.33-43.716 43.721-4.655 0.926-10.944 1.071-32.192 1.071h-85.333z" />
<glyph unicode="&#xe90c;" glyph-name="search" d="M490.667 796.445c180.659 0 327.113-146.452 327.113-327.111 0-88.047-34.786-167.97-91.366-226.773-1.715-1.19-3.354-2.556-4.881-4.083-1.532-1.532-2.893-3.166-4.087-4.885-58.803-56.58-138.726-91.371-226.778-91.371-180.657 0-327.11 146.453-327.11 327.113s146.453 327.111 327.11 327.111zM796.279 214.007c57.813 69.129 92.612 158.161 92.612 255.326 0 219.932-178.291 398.223-398.225 398.223-219.931 0-398.221-178.29-398.221-398.223s178.29-398.221 398.221-398.221c97.165 0 186.202 34.799 255.33 92.612l124.864-124.864c13.884-13.888 36.395-13.888 50.283-0.004 13.884 13.888 13.884 36.399 0 50.283l-124.864 124.868z" />
<glyph unicode="&#xe90d;" glyph-name="arrow-left" d="M542.172 776.836c-16.666 16.663-43.679 16.663-60.341 0l-298.666-298.666c-16.662-16.663-16.662-43.676 0-60.342l298.666-298.665c16.663-16.66 43.676-16.66 60.341 0 16.66 16.66 16.66 43.679 0 60.339l-225.831 225.833h494.329c23.562 0 42.665 19.103 42.665 42.665 0 23.564-19.103 42.666-42.665 42.666h-494.329l225.831 225.83c16.66 16.662 16.66 43.677 0 60.34z" />
<glyph unicode="&#xe90e;" glyph-name="arrow-right" d="M481.829 776.836c16.663 16.663 43.678 16.663 60.338 0l298.67-298.666c16.66-16.663 16.66-43.676 0-60.342l-298.67-298.665c-16.66-16.66-43.676-16.66-60.338 0s-16.662 43.679 0 60.339l225.832 225.833h-494.328c-23.564 0-42.667 19.103-42.667 42.665 0 23.564 19.103 42.666 42.667 42.666h494.328l-225.832 225.83c-16.662 16.662-16.662 43.677 0 60.34z" />
<glyph unicode="&#xe90f;" glyph-name="help" d="M759.936 154.752l-90.944 91.008c-44.868-34.927-100.13-53.85-156.992-53.76-56.862-0.090-112.122 18.833-156.992 53.76l-90.944-91.008c69.253-58.722 157.138-90.889 247.936-90.752 94.528 0 181.12 34.176 247.936 90.752zM805.248 200.064c58.722 69.252 90.889 157.137 90.752 247.936 0 94.528-34.176 181.12-90.752 247.936l-91.008-90.944c33.664-43.392 53.76-97.856 53.76-156.992s-20.096-113.6-53.76-156.992l91.008-90.944zM759.936 741.248c-69.252 58.722-157.137 90.891-247.936 90.752-94.528 0-181.12-34.176-247.936-90.752l90.944-91.008c44.87 34.928 100.13 53.851 156.992 53.76 59.136 0 113.6-20.096 156.992-53.76l90.944 91.008zM218.752 695.936c-58.722-69.253-90.891-157.138-90.752-247.936 0-94.528 34.176-181.12 90.752-247.936l91.008 90.944c-34.928 44.868-53.851 100.13-53.76 156.992 0 59.136 20.096 113.6 53.76 156.992l-91.008 90.944zM636.032 301.44c8.111 6.882 15.646 14.417 22.528 22.528 28.352 33.472 45.44 76.8 45.44 124.032 0.051 27.908-6.007 55.492-17.749 80.811s-28.881 47.76-50.219 65.749c-34.637 29.393-78.605 45.501-124.032 45.44-27.908 0.052-55.492-6.006-80.811-17.747s-47.76-28.883-65.749-50.221c-28.352-33.472-45.44-76.8-45.44-124.032-0.052-27.908 6.006-55.492 17.747-80.811s28.883-47.761 50.221-65.749c33.472-28.352 76.8-45.44 124.032-45.44 47.296 0 90.56 17.088 124.032 45.44zM512 0c-118.817 0-232.768 47.198-316.784 131.217-84.016 84.015-131.216 197.965-131.216 316.783s47.2 232.768 131.216 316.784 197.967 131.216 316.784 131.216c118.818 0 232.768-47.2 316.783-131.216 84.019-84.016 131.217-197.967 131.217-316.784s-47.198-232.768-131.217-316.783c-84.015-84.019-197.965-131.217-316.783-131.217z" />
<glyph unicode="&#xe910;" glyph-name="export" d="M0 229.336v218.659c0 24.007 19.46 43.467 43.467 43.467s43.467-19.459 43.467-43.467v-218.659c0-44.442 0.033-75.173 1.983-99.032 1.907-23.342 5.456-36.25 10.32-45.807l4.322-7.777c10.829-17.658 26.381-32.028 44.942-41.483l7.88-3.408c8.761-3.135 20.41-5.484 37.926-6.912 23.86-1.951 54.589-1.985 99.034-1.985h437.317c44.447 0 75.173 0.034 99.038 1.985 23.336 1.906 36.25 5.456 45.801 10.32l7.782 4.324c17.658 10.826 32.023 26.379 41.483 44.937l3.408 7.885c3.135 8.761 5.478 20.406 6.912 37.922 1.951 23.859 1.98 54.591 1.98 99.032v218.659c0 24.007 19.462 43.467 43.469 43.467s43.469-19.459 43.469-43.467v-218.659c0-43.008 0.017-77.875-2.287-106.098-2.054-25.139-6.127-47.912-15.252-69.194l-4.221-9.045c-16.748-32.87-42.24-60.331-73.512-79.514l-13.727-7.726c-23.854-12.157-49.51-17.124-78.239-19.473-28.223-2.304-63.095-2.287-106.103-2.287h-437.317c-43.010 0-77.88-0.017-106.101 2.287-25.138 2.054-47.912 6.127-69.192 15.252l-9.049 4.221c-32.868 16.748-60.331 42.24-79.512 73.512l-7.728 13.727c-12.154 23.854-17.124 49.51-19.471 78.239-2.305 28.223-2.288 63.090-2.288 106.098zM468.532 291.817v519.724l-134.011-134.010c-16.976-16.976-44.539-16.976-61.515 0s-16.976 44.539 0 61.515l208.237 208.234 3.305 2.949c17.073 13.94 42.29 12.972 58.21-2.949l208.238-208.234 2.947-3.305c13.943-17.073 12.971-42.29-2.947-58.21-15.923-15.92-41.136-16.889-58.214-2.949l-3.3 2.949-134.014 134.010v-519.724c0-24.007-19.46-43.463-43.468-43.463s-43.468 19.456-43.468 43.463z" />
<glyph unicode="&#xe911;" glyph-name="open-lock" horiz-adv-x="910" d="M824.201 250.186c0 44.447-0.034 75.173-1.963 99.032-1.417 17.516-3.738 29.167-6.844 37.928l-3.368 7.88c-9.358 18.561-23.575 34.112-41.051 44.942l-7.697 4.321c-9.449 4.865-22.226 8.413-45.323 10.32-23.609 1.95-54.016 1.983-97.991 1.983h-329.703c-43.979 0-74.384-0.034-97.995-1.983-17.332-1.431-28.858-3.779-37.527-6.914l-7.797-3.407c-18.365-9.457-33.754-23.824-44.47-41.485l-4.276-7.778c-4.814-9.552-8.325-22.466-10.212-45.808-1.929-23.859-1.962-54.585-1.962-99.032v-20.844c0-44.447 0.033-75.173 1.962-99.038 1.888-23.336 5.398-36.25 10.212-45.801l4.276-7.782c10.716-17.658 26.105-32.023 44.47-41.483l7.797-3.408c8.669-3.135 20.196-5.478 37.527-6.912 23.61-1.951 54.016-1.98 97.995-1.98h329.703c43.975 0 74.382 0.028 97.991 1.98 23.097 1.906 35.874 5.456 45.323 10.32l7.697 4.324c17.476 10.826 31.693 26.379 41.051 44.942l3.368 7.879c3.106 8.761 5.427 20.412 6.844 37.922 1.929 23.865 1.963 54.591 1.963 99.038v20.844zM910.222 229.342c0-43.008 0.017-77.881-2.264-106.103-2.031-25.139-6.059-47.912-15.093-69.188l-4.176-9.051c-16.572-32.865-41.796-60.331-72.738-79.514l-13.585-7.726c-23.603-12.157-48.987-17.124-77.42-19.473-27.921-2.304-62.43-2.287-104.983-2.287h-329.703c-42.558 0-77.062-0.017-104.987 2.287-24.874 2.054-47.409 6.127-68.465 15.252l-8.954 4.221c-32.522 16.748-59.698 42.24-78.678 73.512l-7.646 13.727c-12.026 23.854-16.944 49.51-19.267 78.239-2.281 28.223-2.264 63.095-2.264 106.103v20.844c0 43.008-0.017 77.881 2.264 106.098 2.323 28.735 7.241 54.39 19.267 78.244l7.646 13.727c18.98 31.271 46.155 56.765 78.678 73.513l8.954 4.22c12.044 5.221 24.556 8.855 37.729 11.337v118.913c0 167.765 134.57 303.763 300.574 303.763 140.914 0 259.095-97.959 291.669-230.149l2.918-12.913 0.654-4.372c2.167-21.927-12.436-42.388-34.258-46.874-21.828-4.477-43.179 8.6-49.653 29.639l-1.052 4.321-2.065 9.202c-23.25 94.33-107.708 164.21-208.213 164.21-118.493 0-214.552-97.079-214.552-216.829v-112.914c15.206 0.167 31.737 0.204 49.702 0.204h329.703c42.553 0 77.062 0.018 104.983-2.288 28.433-2.347 53.817-7.317 77.42-19.471l13.585-7.727c30.942-19.181 56.166-46.645 72.738-79.512l4.176-9.049c9.034-21.28 13.062-44.055 15.093-69.195 2.281-28.217 2.264-63.090 2.264-106.098v-20.844z" />
<glyph unicode="&#xe912;" glyph-name="info" d="M872.909 448c0 199.323-161.587 360.908-360.909 360.908s-360.908-161.585-360.908-360.908c0-199.322 161.585-360.909 360.908-360.909s360.909 161.587 360.909 360.909zM512.384 283.985l3.383-0.154c16.576-1.69 29.495-15.706 29.495-32.725s-12.919-31.036-29.495-32.725l-3.383-0.154h-0.384c-18.159 0-32.879 14.72-32.879 32.879s14.72 32.879 32.879 32.879h0.384zM432.32 657.123c30.746 18.070 66.91 24.68 102.063 18.651 35.14-6.028 67.017-24.294 89.984-51.569 22.959-27.272 35.537-61.8 35.494-97.446l-0.461-10.423c-4.745-51.102-43.703-85.82-73.259-105.523-16.759-11.17-33.284-19.418-45.491-24.841-6.148-2.731-11.328-4.817-15.036-6.229-1.852-0.704-3.345-1.271-4.425-1.655-0.538-0.192-0.981-0.35-1.306-0.461-0.154-0.051-0.286-0.081-0.384-0.115-0.051-0.017-0.119-0.026-0.158-0.038l-0.038-0.038h-0.038c-0.009-0.004-0.021-0.004-10.419 31.189l-1.924 5.73 12.305-36.919c-17.22-5.734-35.827 3.58-41.57 20.804-5.73 17.216 3.558 35.819 20.766 41.57h-0.038c0.013 0.004 0.060 0.021 0.115 0.038 0.128 0.043 0.346 0.119 0.657 0.23 0.649 0.23 1.702 0.593 3.076 1.118 2.748 1.045 6.81 2.658 11.729 4.843 9.941 4.42 22.95 10.944 35.725 19.46 27.546 18.364 44.416 39.339 44.416 61.261v0.038l-0.307 7.536c-1.519 17.424-8.388 34.019-19.729 47.493-12.966 15.402-30.955 25.745-50.799 29.149-19.84 3.403-40.252-0.339-57.609-10.537-17.357-10.202-30.541-26.231-37.222-45.224l-1.271-3.115c-7.090-15.081-24.626-22.645-40.686-16.998-17.124 6.030-26.099 24.828-20.074 41.955l4.961 12.344c12.818 28.212 34.054 51.909 60.953 67.721zM938.667 448c0-235.644-191.023-426.667-426.667-426.667-235.642 0-426.667 191.023-426.667 426.667 0 235.642 191.024 426.667 426.667 426.667s426.667-191.024 426.667-426.667z" />
<glyph unicode="&#xe913;" glyph-name="check-circle" d="M872.909 448c0 199.323-161.587 360.908-360.909 360.908s-360.908-161.585-360.908-360.908c0-199.322 161.585-360.909 360.908-360.909s360.909 161.587 360.909 360.909zM665.937 589.402c12.843 12.841 33.694 12.841 46.532 0 12.843-12.841 12.843-33.691 0-46.532l-236.271-236.272c-12.843-12.843-33.69-12.843-46.532 0l-118.136 118.135-2.231 2.5c-10.545 12.915-9.812 31.987 2.231 44.032 12.042 12.041 31.117 12.774 44.032 2.231l2.5-2.231 94.871-94.869 213.005 213.005zM938.667 448c0-235.644-191.023-426.667-426.667-426.667-235.642 0-426.667 191.023-426.667 426.667 0 235.642 191.024 426.667 426.667 426.667s426.667-191.024 426.667-426.667z" />
<glyph unicode="&#xe914;" glyph-name="Info" d="M872.909 448c0 199.323-161.587 360.908-360.909 360.908s-360.908-161.585-360.908-360.908c0-199.322 161.585-360.909 360.908-360.909s360.909 161.587 360.909 360.909zM512.384 283.985l3.383-0.154c16.576-1.69 29.495-15.706 29.495-32.725s-12.919-31.036-29.495-32.725l-3.383-0.154h-0.384c-18.159 0-32.879 14.72-32.879 32.879s14.72 32.879 32.879 32.879h0.384zM432.32 657.123c30.746 18.070 66.91 24.68 102.063 18.651 35.14-6.028 67.017-24.294 89.984-51.569 22.959-27.272 35.537-61.8 35.494-97.446l-0.461-10.423c-4.745-51.102-43.703-85.82-73.259-105.523-16.759-11.17-33.284-19.418-45.491-24.841-6.148-2.731-11.328-4.817-15.036-6.229-1.852-0.704-3.345-1.271-4.425-1.655-0.538-0.192-0.981-0.35-1.306-0.461-0.154-0.051-0.286-0.081-0.384-0.115-0.051-0.017-0.119-0.026-0.158-0.038l-0.038-0.038h-0.038c-0.009-0.004-0.021-0.004-10.419 31.189l-1.924 5.73 12.305-36.919c-17.22-5.734-35.827 3.58-41.57 20.804-5.73 17.216 3.558 35.819 20.766 41.57h-0.038c0.013 0.004 0.060 0.021 0.115 0.038 0.128 0.043 0.346 0.119 0.657 0.23 0.649 0.23 1.702 0.593 3.076 1.118 2.748 1.045 6.81 2.658 11.729 4.843 9.941 4.42 22.95 10.944 35.725 19.46 27.546 18.364 44.416 39.339 44.416 61.261v0.038l-0.307 7.536c-1.519 17.424-8.388 34.019-19.729 47.493-12.966 15.402-30.955 25.745-50.799 29.149-19.84 3.403-40.252-0.339-57.609-10.537-17.357-10.202-30.541-26.231-37.222-45.224l-1.271-3.115c-7.090-15.081-24.626-22.645-40.686-16.998-17.124 6.030-26.099 24.828-20.074 41.955l4.961 12.344c12.818 28.212 34.054 51.909 60.953 67.721zM938.667 448c0-235.644-191.023-426.667-426.667-426.667-235.642 0-426.667 191.023-426.667 426.667 0 235.642 191.024 426.667 426.667 426.667s426.667-191.024 426.667-426.667z" />
<glyph unicode="&#xe915;" glyph-name="lock" d="M817.707 328.542c0 36.425-0.026 61.611-1.621 81.165-1.173 14.357-3.098 23.906-5.67 31.087l-2.79 6.455c-7.748 15.211-19.524 27.959-34.001 36.834l-6.374 3.541c-7.829 3.989-18.411 6.895-37.542 8.461-19.554 1.596-44.74 1.621-81.165 1.621h-273.084c-36.427 0-61.611-0.026-81.167-1.621-14.356-1.173-23.903-3.098-31.083-5.67l-6.458-2.79c-15.212-7.748-27.958-19.524-36.833-34.001l-3.542-6.374c-3.987-7.829-6.895-18.411-8.458-37.542-1.598-19.554-1.625-44.74-1.625-81.165v-59.75l0.208-46.916c0.207-13.286 0.618-24.474 1.417-34.249 1.563-19.132 4.471-29.713 8.458-37.542l3.542-6.374c8.876-14.477 21.622-26.253 36.833-34.001l6.458-2.79c7.18-2.573 16.727-4.497 31.083-5.67 19.555-1.596 44.74-1.621 81.167-1.621h273.084c36.425 0 61.611 0.026 81.165 1.621 19.132 1.566 29.713 4.471 37.542 8.461l6.374 3.541c14.477 8.875 26.253 21.623 34.001 36.834l2.79 6.455c2.573 7.181 4.497 16.73 5.67 31.087 1.596 19.554 1.621 44.74 1.621 81.165v59.75zM476.373 256v85.333c0 19.678 15.949 35.627 35.627 35.627s35.627-15.949 35.627-35.627v-85.333c0-19.678-15.949-35.627-35.627-35.627s-35.627 15.949-35.627 35.627zM689.707 618.667c0 98.145-79.561 177.708-177.707 177.708s-177.708-79.564-177.708-177.708v-49.875c12.595 0.137 26.287 0.167 41.167 0.167h273.084c14.882 0 28.57-0.030 41.165-0.167v49.875zM760.96 563.875c13.636-2.543 26.436-6.519 38.665-12.75l11.251-6.333c25.63-15.721 46.524-38.227 60.25-65.167l3.456-7.415c7.484-17.442 10.82-36.105 12.501-56.708 1.89-23.13 1.877-51.708 1.877-86.959v-59.75c0-35.251 0.013-63.829-1.877-86.959-1.681-20.604-5.018-39.266-12.501-56.708l-3.456-7.415c-13.726-26.94-34.62-49.446-60.25-65.169l-11.251-6.332c-19.55-9.963-40.576-14.033-64.124-15.957-23.13-1.89-51.708-1.877-86.959-1.877h-273.084c-35.25 0-63.829-0.013-86.958 1.877-20.603 1.681-39.268 5.018-56.708 12.501l-7.417 3.456c-26.937 13.726-49.446 34.62-65.167 60.25l-6.333 11.251c-9.961 19.55-14.034 40.576-15.959 64.124-0.944 11.563-1.437 24.482-1.667 38.916l-0.208 48.043v59.75c0 35.251-0.015 63.829 1.875 86.959 1.924 23.548 5.997 44.574 15.959 64.124l6.333 11.251c15.72 25.63 38.229 46.523 65.167 60.249l7.417 3.459c9.976 4.279 20.339 7.258 31.25 9.292v54.792c0 137.497 111.462 248.958 248.958 248.958s248.96-111.462 248.96-248.958v-54.792z" />
<glyph unicode="&#xe916;" glyph-name="log-out" d="M92.375 268.791v358.417c0 35.25-0.015 63.829 1.875 86.958 1.924 23.547 5.997 44.575 15.959 64.125l6.333 11.25c15.72 25.63 38.229 46.524 65.167 60.25l7.417 3.459c17.44 7.481 36.105 10.816 56.708 12.5 23.129 1.889 51.708 1.875 86.958 1.875h51.209l3.625-0.167c17.974-1.815 32-17.005 32-35.458s-14.026-33.643-32-35.458l-3.625-0.167h-51.209c-36.427 0-61.611-0.027-81.167-1.625-14.356-1.173-23.903-3.097-31.083-5.667l-6.458-2.792c-15.212-7.751-27.958-19.526-36.833-34l-3.542-6.375c-3.987-7.829-6.895-18.412-8.458-37.542-1.598-19.555-1.625-44.74-1.625-81.167v-358.417c0-36.425 0.027-61.611 1.625-81.165 1.563-19.132 4.471-29.713 8.458-37.542l3.542-6.374c8.876-14.477 21.621-26.253 36.833-34.001l6.458-2.79c7.18-2.573 16.727-4.497 31.083-5.67 19.555-1.596 44.74-1.621 81.167-1.621h51.209l3.625-0.166c17.974-1.818 32-17.007 32-35.46s-14.026-33.643-32-35.46l-3.625-0.166h-51.209c-35.25 0-63.829-0.013-86.958 1.877-20.603 1.681-39.268 5.018-56.708 12.501l-7.417 3.456c-26.937 13.726-49.446 34.62-65.167 60.25l-6.333 11.251c-9.961 19.55-14.034 40.576-15.959 64.124-1.889 23.13-1.875 51.708-1.875 86.959zM657.459 686.542c13.047 13.048 33.715 13.842 47.706 2.417l2.709-2.417 213.333-213.334c13.914-13.914 13.914-36.501 0-50.415l-213.333-213.333c-13.914-13.914-36.501-13.914-50.415 0s-13.914 36.501 0 50.415l152.499 152.499h-425.958c-19.676 0-35.625 15.949-35.625 35.627s15.949 35.627 35.625 35.627h425.958l-152.499 152.498-2.419 2.708c-11.422 13.993-10.628 34.66 2.419 47.708z" />
<glyph unicode="&#xe917;" glyph-name="menu" d="M896 227.627l3.627-0.166c17.971-1.818 32-17.007 32-35.46s-14.029-33.643-32-35.46l-3.627-0.166h-768c-19.676 0-35.625 15.949-35.625 35.627s15.949 35.627 35.625 35.627h768zM640 483.627l3.627-0.166c17.971-1.818 32-17.007 32-35.46s-14.029-33.643-32-35.46l-3.627-0.166h-512c-19.676 0-35.625 15.949-35.625 35.627s15.949 35.627 35.625 35.627h512zM896 739.625l3.627-0.167c17.971-1.815 32-17.005 32-35.458s-14.029-33.643-32-35.458l-3.627-0.167h-768c-19.676 0-35.625 15.949-35.625 35.625s15.949 35.625 35.625 35.625h768z" />
<glyph unicode="&#xe918;" glyph-name="moon" d="M276.542 690.917c0 39.051 4.655 77.044 13.5 113.417-104.614-75.247-172.708-198.001-172.708-336.626 0.009-228.847 185.526-414.366 414.374-414.374 138.628 0 261.338 68.13 336.585 172.749-36.365-8.841-74.334-13.538-113.374-13.538-264.205 0-478.374 214.17-478.377 478.373zM340.542 690.917c0.002-228.858 185.517-414.373 414.377-414.373 60.864 0 118.605 13.077 170.581 36.582 12.126 5.478 26.377 2.906 35.793-6.502 9.417-9.417 12.028-23.697 6.541-35.831-75.034-165.914-242.065-281.459-436.126-281.459-264.195 0.009-478.365 214.178-478.374 478.374 0 194.062 115.545 361.094 281.458 436.126l4.625 1.667c10.991 3.056 22.966 0.035 31.208-8.208 8.229-8.236 11.252-20.187 8.209-31.167l-1.708-4.625c-23.506-51.977-36.583-109.719-36.583-170.583z" />
<glyph unicode="&#xe919;" glyph-name="right" d="M872.909 448c0 199.323-161.587 360.908-360.909 360.908s-360.908-161.585-360.908-360.908c0-199.322 161.585-360.909 360.908-360.909s360.909 161.587 360.909 360.909zM665.937 589.402c12.843 12.841 33.694 12.841 46.532 0 12.843-12.841 12.843-33.691 0-46.532l-236.271-236.272c-12.843-12.843-33.69-12.843-46.532 0l-118.136 118.135-2.231 2.5c-10.545 12.915-9.812 31.987 2.231 44.032 12.042 12.041 31.117 12.774 44.032 2.231l2.5-2.231 94.871-94.869 213.005 213.005zM938.667 448c0-235.644-191.023-426.667-426.667-426.667-235.642 0-426.667 191.023-426.667 426.667 0 235.642 191.024 426.667 426.667 426.667s426.667-191.024 426.667-426.667z" />
<glyph unicode="&#xe91a;" glyph-name="user" d="M817.69 64c0 54.357-0.29 78.895-3.998 96.166l-1.835 7.040c-12.279 40.461-42.718 72.683-82.044 87.334l-7.957 2.667c-17.894 5.427-41.071 5.833-103.206 5.833h-213.335c-54.357 0-78.895-0.29-96.167-3.998l-7.042-1.835c-40.461-12.275-72.681-42.718-87.333-82.039l-2.667-7.962c-5.428-17.89-5.833-41.071-5.833-103.206 0-19.678-15.949-35.627-35.625-35.627s-35.625 15.949-35.625 35.627c0 56.947-0.392 93.321 8.875 123.874l4.125 12.211c22.391 60.062 71.609 106.581 133.417 125.333l11.75 3.038c28.212 6.14 62.292 5.837 112.125 5.837h213.335c56.943 0 93.316 0.388 123.874-8.875l12.207-4.126c60.062-22.391 106.586-71.612 125.333-133.419l3.042-11.75c6.135-28.211 5.833-62.289 5.833-112.124 0-19.678-15.949-35.627-35.622-35.627-19.678 0-35.627 15.949-35.627 35.627zM668.356 640c0 86.362-70.012 156.375-156.373 156.375-86.364 0-156.376-70.013-156.376-156.375s70.012-156.373 156.376-156.373c86.362 0 156.373 70.011 156.373 156.373zM739.605 640c0-125.713-101.909-227.627-227.622-227.627-125.716 0-227.626 101.914-227.626 227.627 0 125.715 101.91 227.625 227.626 227.625 125.713 0 227.622-101.91 227.622-227.625z" />
<glyph unicode="&#xe91b;" glyph-name="archive" d="M817.711 583.042h-611.417v-314.251c0-36.425 0.027-61.611 1.625-81.165 1.563-19.132 4.471-29.713 8.458-37.542l3.542-6.374c8.876-14.477 21.622-26.249 36.833-34.001l6.458-2.79c7.181-2.573 16.728-4.493 31.084-5.666 19.555-1.6 44.74-1.626 81.167-1.626h273.082c36.429 0 61.615 0.026 81.169 1.626 19.127 1.562 29.713 4.471 37.542 8.457l6.374 3.541c14.473 8.875 26.249 21.623 34.001 36.834l2.79 6.46c2.569 7.177 4.493 16.725 5.666 31.083 1.596 19.554 1.626 44.74 1.626 81.165v314.251zM597.333 440.96c19.678 0 35.627-15.949 35.627-35.627 0-19.674-15.949-35.622-35.627-35.622h-170.667c-19.674 0-35.623 15.949-35.623 35.622 0 19.678 15.949 35.627 35.623 35.627h170.667zM903.044 725.334c0 16.137-0.081 23.307-0.461 27.542l-0.499 3.5c-3.435 17.248-15.663 31.195-31.872 37.041l-7.168 2c-3.934 0.783-9.51 0.958-31.044 0.958h-639.998c-16.137 0-23.307-0.080-27.542-0.458l-3.5-0.5c-17.248-3.435-31.195-15.665-37.041-31.875l-2-7.167c-0.783-3.934-0.958-9.509-0.958-31.042s0.176-27.107 0.958-31.042l2-7.167c5.846-16.209 19.793-28.44 37.041-31.875l3.583-0.458 7.042-0.375 1.792-0.125h677.251c0.593 0.045 1.19 0.11 1.792 0.125l7.040 0.375c1.673 0.145 2.773 0.297 3.584 0.458l7.168 2c16.209 5.847 28.437 19.793 31.872 37.041l0.499 3.5c0.38 4.236 0.461 11.405 0.461 27.542zM974.293 725.334c0-13.59 0.090-25.010-0.917-35.167l-1.417-9.75c-8.73-43.886-40.866-78.935-82.999-91.917v-319.709c0-35.251 0.017-63.829-1.873-86.959-1.685-20.599-5.022-39.266-12.501-56.708l-3.46-7.415c-13.726-26.935-34.62-49.446-60.25-65.165l-11.247-6.336c-19.55-9.958-40.58-14.033-64.128-15.957-23.13-1.89-51.708-1.873-86.959-1.873h-273.082c-35.25 0-63.829-0.017-86.958 1.873-20.603 1.681-39.268 5.018-56.708 12.501l-7.417 3.456c-26.937 13.726-49.446 34.62-65.167 60.25l-6.333 11.251c-9.961 19.55-14.034 40.576-15.959 64.124-1.889 23.13-1.875 51.708-1.875 86.959v319.709c-39.258 12.096-69.867 43.322-80.917 83.042l-2.083 8.875c-2.494 12.549-2.333 26.805-2.333 44.916s-0.161 32.368 2.333 44.917l2.083 8.875c12.157 43.7 47.969 77.218 92.958 86.167l9.75 1.417c10.157 1.005 21.577 0.916 35.167 0.916h639.998c18.112 0 32.371 0.161 44.919-2.333l8.875-2.083c43.699-12.157 77.218-47.969 86.165-92.958l1.417-9.75c1.007-10.157 0.917-21.577 0.917-35.167z" />
<glyph unicode="&#xe91c;" glyph-name="cancel" d="M860.373 448c0 192.401-155.972 348.375-348.373 348.375s-348.375-155.974-348.375-348.375c0-192.401 155.974-348.373 348.375-348.373s348.373 155.972 348.373 348.373zM604.71 590.833c13.99 11.418 34.62 10.587 47.663-2.458 13.914-13.913 13.914-36.462 0-50.375l-89.997-90 89.997-90.001 2.462-2.709c11.418-13.99 10.586-34.62-2.462-47.663-13.043-13.047-33.673-13.879-47.663-2.462l-2.709 2.462-90.001 89.997-90-89.997-2.708-2.462c-13.993-11.418-34.621-10.586-47.667 2.462-13.913 13.909-13.913 36.459 0 50.372l89.999 90.001-89.999 90-2.458 2.708c-11.418 13.993-10.587 34.621 2.458 47.667s33.673 13.876 47.667 2.458l2.708-2.458 90-89.999 90.001 89.999 2.709 2.458zM931.627 448c0-231.753-187.874-419.627-419.627-419.627s-419.625 187.874-419.625 419.627c0 231.753 187.872 419.625 419.625 419.625s419.627-187.872 419.627-419.625z" />
<glyph unicode="&#xe91d;" glyph-name="dots" d="M433.792 149.248c0 43.238 35.055 78.293 78.293 78.293v0c43.238 0 78.293-35.055 78.293-78.293v0c0-43.238-35.055-78.293-78.293-78.293v0c-43.238 0-78.293 35.055-78.293 78.293v0zM433.792 746.582c0 43.24 35.055 78.293 78.293 78.293v0c43.238 0 78.293-35.053 78.293-78.293v0c0-43.24-35.055-78.293-78.293-78.293v0c-43.238 0-78.293 35.053-78.293 78.293v0zM433.792 447.915c0 43.238 35.055 78.293 78.293 78.293v0c43.238 0 78.293-35.055 78.293-78.293v0c0-43.238-35.055-78.293-78.293-78.293v0c-43.238 0-78.293 35.055-78.293 78.293v0z" />
<glyph unicode="&#xe91e;" glyph-name="sort" d="M476.382 746.667c0 19.676 15.949 35.625 35.627 35.625s35.627-15.949 35.627-35.625v-511.292l237.833 237.833c13.914 13.914 36.501 13.914 50.415 0s13.914-36.501 0-50.415l-298.667-298.667c-13.914-13.914-36.501-13.914-50.415 0l-301.084 301.376c-11.425 13.99-10.631 34.658 2.417 47.706s33.715 13.841 47.709 2.419l2.708-2.419 237.832-237.833v511.292z" />
<glyph unicode="&#xe91f;" glyph-name="trash" d="M775.040 668.375h-526.082v-442.25c0-36.425 0.027-61.611 1.625-81.165 1.563-19.132 4.471-29.713 8.458-37.542l3.542-6.374c8.876-14.477 21.622-26.253 36.833-34.001l6.458-2.79c7.18-2.573 16.727-4.497 31.083-5.67 19.555-1.596 44.74-1.621 81.167-1.621h187.75c36.425 0 61.611 0.026 81.165 1.621 19.132 1.566 29.713 4.471 37.542 8.461l6.374 3.541c14.477 8.875 26.253 21.623 34.001 36.834l2.79 6.455c2.573 7.181 4.497 16.73 5.67 31.087 1.596 19.554 1.621 44.74 1.621 81.165v442.25zM391.042 256v213.333c0 19.678 15.949 35.627 35.625 35.627 19.678 0 35.627-15.949 35.627-35.627v-213.333c0-19.678-15.949-35.627-35.627-35.627-19.676 0-35.625 15.949-35.625 35.627zM561.707 256v213.333c0 19.678 15.949 35.627 35.627 35.627s35.627-15.949 35.627-35.627v-213.333c0-19.678-15.949-35.627-35.627-35.627s-35.627 15.949-35.627 35.627zM477.875 839.042c-24.482 0-40.725-0.025-53.167-1.042-9.018-0.737-14.269-1.891-17.708-3.125l-2.917-1.25c-7.008-3.573-13.041-8.74-17.625-15.042l-4.084-6.667c-1.664-3.267-3.392-8.608-4.375-20.625-0.996-12.188-1.040-28.013-1.042-51.667h270.082c0 23.654-0.043 39.479-1.041 51.667-0.738 9.018-1.89 14.269-3.123 17.708l-1.25 2.917c-3.575 7.008-8.742 13.041-15.044 17.625l-6.665 4.084c-3.268 1.664-8.606 3.392-20.625 4.375-12.442 1.017-28.685 1.042-53.167 1.042h-68.25zM846.293 226.125c0-35.251 0.013-63.829-1.877-86.959-1.681-20.604-5.018-39.266-12.501-56.708l-3.456-7.415c-13.726-26.94-34.62-49.446-60.25-65.169l-11.251-6.332c-19.55-9.963-40.576-14.033-64.124-15.957-23.13-1.89-51.708-1.877-86.959-1.877h-187.75c-35.25 0-63.829-0.013-86.958 1.877-20.603 1.681-39.268 5.018-56.708 12.501l-7.417 3.456c-26.937 13.726-49.446 34.62-65.167 60.25l-6.333 11.251c-9.961 19.55-14.034 40.576-15.959 64.124-1.889 23.13-1.875 51.708-1.875 86.959v442.25h-49.708c-19.676 0-35.625 15.949-35.625 35.625s15.949 35.625 35.625 35.625h177.708c0 22.654 0.011 41.784 1.292 57.458 1.343 16.43 4.241 32.183 11.875 47.167l4.667 8.333c11.622 18.95 28.292 34.394 48.208 44.542l5.667 2.625c13.276 5.692 27.124 8.075 41.5 9.25 16.019 1.309 35.65 1.292 58.959 1.292h68.25c23.309 0 42.94 0.017 58.957-1.292 16.431-1.343 32.183-4.241 47.168-11.875l8.333-4.667c18.953-11.622 34.394-28.292 44.544-48.208l2.624-5.667c5.692-13.276 8.077-27.124 9.25-41.5 1.28-15.674 1.293-34.804 1.293-57.458h177.707c19.678 0 35.627-15.949 35.627-35.625s-15.949-35.625-35.627-35.625h-49.707v-442.25z" />
<glyph unicode="&#xe920;" glyph-name="arrow-up-down" horiz-adv-x="683" d="M595.615 307.502c16.663 16.663 43.674 16.663 60.336 0s16.663-43.674 0-60.336l-284.445-284.444c-15.622-15.622-40.352-16.612-57.111-2.941l-3.222 2.941-287.389 287.67c-13.671 16.759-12.677 41.489 2.944 57.111s40.353 16.612 57.111 2.941l3.222-2.941 254.278-254.276 254.275 254.276zM314.395 936.222c16.759 13.671 41.49 12.677 57.111-2.944l287.386-287.667c13.676-16.758 12.681-41.489-2.941-57.111s-40.351-16.615-57.111-2.945l-3.226 2.945-254.275 254.278-254.278-254.278c-16.662-16.662-43.671-16.662-60.333 0s-16.662 43.671 0 60.334l287.666 287.389z" />
<glyph unicode="&#xe921;" glyph-name="chevron-up-down" horiz-adv-x="683" d="M595.615 307.502c16.663 16.663 43.674 16.663 60.336 0s16.663-43.674 0-60.336l-284.445-284.444c-15.622-15.622-40.352-16.612-57.111-2.941l-3.222 2.941-287.389 287.67c-13.671 16.759-12.677 41.489 2.944 57.111s40.353 16.612 57.111 2.941l3.222-2.941 254.278-254.276 254.275 254.276zM314.395 936.222c16.759 13.671 41.49 12.677 57.111-2.944l287.386-287.667c13.676-16.758 12.681-41.489-2.941-57.111s-40.351-16.615-57.111-2.945l-3.226 2.945-254.275 254.278-254.278-254.278c-16.662-16.662-43.671-16.662-60.333 0s-16.662 43.671 0 60.334l287.666 287.389z" />
<glyph unicode="&#xe922;" glyph-name="write-pen" horiz-adv-x="1078" d="M755.583 916.643c62.545 56.514 159.14 54.595 219.422-5.684 60.26-60.28 62.141-156.83 5.632-219.368l-5.632-5.948-677.105-677.052c-12.839-12.838-23.652-23.913-35.211-32.897l-11.895-8.262c-10.252-6.279-21.223-11.345-32.632-15.053l-11.579-3.261c-18.779-4.506-38.214-4.209-62.421-4.209h-90.263c-24.854 0-45 20.146-45 44.997v90.209c0 24.22-0.298 43.692 4.211 62.475l3.263 11.582c3.707 11.404 8.773 22.329 15.053 32.579l8.263 11.943c8.984 11.56 20.056 22.372 32.894 35.215l683 682.735zM1024.005 34.908l4.576-0.264c22.7-2.296 40.416-21.434 40.421-44.738 0-23.309-17.715-42.496-40.421-44.787l-4.576-0.21h-485.053c-24.855 0-45.002 20.146-45.002 44.997 0.007 24.851 20.151 45.002 45.002 45.002h485.053zM98.899 34.908h45.263c28.482 0 35.402 0.291 41.421 1.735l9.369 3.050c3.036 1.261 5.98 2.754 8.79 4.473l4.158 2.9c4.605 3.627 11.249 10.035 26.369 25.158l681.841 682.313c22.215 27.23 20.593 67.406-4.786 92.789-25.379 25.368-65.514 26.978-92.737 4.79l-5.266-4.79-677.105-677.052c-15.116-15.117-21.531-21.763-25.158-26.371l-2.895-4.155c-1.72-2.808-3.217-5.756-4.474-8.79l-3.053-9.367c-1.445-6.025-1.736-12.967-1.736-41.477v-45.207z" />
<glyph unicode="&#xe923;" glyph-name="folder" horiz-adv-x="1126" d="M1032.448 458.249c0 43.712-0.031 73.933-1.946 97.4-1.408 17.227-3.717 28.683-6.804 37.3l-3.348 7.75c-9.298 18.254-23.429 33.549-40.801 44.2l-7.649 4.25c-9.395 4.784-22.093 8.274-45.051 10.15-23.465 1.917-53.688 1.95-97.398 1.95h-735.5v-428.3c0-43.715 0.033-73.933 1.95-97.403 1.876-22.953 5.366-35.651 10.15-45.046l4.25-7.649c10.651-17.372 25.946-31.503 44.2-40.801l7.75-3.354c8.616-3.082 20.073-5.391 37.3-6.799 23.466-1.915 53.688-1.951 97.4-1.951h532.5c43.709 0 73.933 0.036 97.398 1.951 22.958 1.879 35.656 5.366 45.051 10.153l7.649 4.25c17.372 10.65 31.503 25.943 40.801 44.201l3.348 7.747c3.087 8.617 5.396 20.076 6.804 37.299 1.915 23.47 1.946 53.688 1.946 97.403v225.299zM215.050 866.050c-29.38 0-48.869-0.030-63.8-1.25-10.822-0.885-17.123-2.269-21.25-3.75l-3.5-1.5c-8.409-4.287-15.649-10.488-21.15-18.050l-4.9-8c-1.997-3.919-4.070-10.329-5.25-24.75-1.195-14.626-1.248-33.616-1.25-62h451.299l-26.199 52.35c-13.379 26.757-19.451 38.207-24.15 44.7l-4.45 5.2c-4.734 4.637-10.19 8.471-16.15 11.3l-6.15 2.5c-7.831 2.698-17.576 3.25-57.4 3.25h-195.7zM1117.952 232.95c0-42.301 0.015-76.595-2.253-104.351-2.017-24.724-6.021-47.119-15.002-68.050l-4.147-8.899c-16.471-32.328-41.544-59.336-72.3-78.203l-13.501-7.598c-23.46-11.955-48.691-16.84-76.948-19.149-27.756-2.268-62.049-2.253-104.351-2.253h-532.5c-42.3 0-76.595-0.015-104.35 2.253-24.723 2.017-47.121 6.021-68.050 14.996l-8.9 4.152c-32.325 16.471-59.336 41.544-78.2 72.3l-7.6 13.501c-11.953 23.46-16.841 48.691-19.15 76.948-2.267 27.756-2.25 62.049-2.25 104.351v511.999c0 27.97-0.020 51.53 1.55 70.75 1.611 19.716 5.090 38.619 14.25 56.6l5.6 10c13.947 22.739 33.95 41.272 57.85 53.45l6.8 3.15c15.931 6.83 32.549 9.69 49.8 11.1 19.22 1.57 42.781 1.55 70.75 1.55h195.7c33.654 0 60.685 0.54 85.3-7.95l7.55-2.8c17.38-7.097 33.252-17.529 46.697-30.7l6.651-7.1c14.894-17.293 25.38-39.307 38.554-65.65l45.297-90.6h188.652c42.301 0 76.595 0.017 104.351-2.25 28.257-2.309 53.489-7.197 76.948-19.15l13.501-7.6c30.756-18.865 55.828-45.875 72.3-78.2l4.147-8.9c8.98-20.929 12.984-43.326 15.002-68.050 2.268-27.755 2.253-62.050 2.253-104.35v-225.299z" />
<glyph unicode="&#xe924;" glyph-name="shuffle" d="M788.951 324.649c15.657 15.657 40.458 16.609 57.247 2.898l3.251-2.898 153.6-153.6 2.903-3.251c12.8-15.677 12.8-38.318 0-54.001l-2.903-3.246-153.6-153.6c-16.696-16.696-43.802-16.696-60.498 0-16.696 16.691-16.696 43.802 0 60.498l80.599 80.599h-21.202c-39.736 0-68.931-0.328-95.247 5.55l-11.151 2.903c-21.612 6.559-41.907 16.814-60.001 30.249l-7.598 5.949c-17.756 14.597-31.882 33.183-48.451 57.498l-17.649 26.301-12.349 18.601-2.253 3.748c-10.127 19.149-4.306 43.223 14.1 55.501 18.417 12.278 42.921 8.422 56.699-8.3l2.601-3.548 12.349-18.55 17.951-26.65c15.094-22.052 22.584-31.427 31.252-38.554l8.75-6.497c9.052-6.057 18.985-10.726 29.45-13.901l5.55-1.449c13.435-2.995 31.611-3.354 75.996-3.354h21.202l-80.599 80.604-2.903 3.246c-13.706 16.794-12.754 41.595 2.903 57.252zM788.951 939.049c15.657 15.658 40.458 16.611 57.247 2.9l3.251-2.9 153.6-153.6 2.903-3.25c12.8-15.678 12.8-38.321 0-54l-2.903-3.25-153.6-153.6c-16.696-16.696-43.802-16.696-60.498 0s-16.696 43.804 0 60.5l80.599 80.6h-21.202c-44.385 0-62.561-0.358-75.996-3.35l-5.55-1.45c-10.465-3.177-20.398-7.842-29.45-13.9l-8.75-6.5c-8.668-7.126-16.159-16.502-31.252-38.55l-17.951-26.65-263.648-395.55c-22.041-33.060-37.959-57.513-57.45-76.15l-8.65-7.649c-17.441-14.331-37.195-25.549-58.4-33.152l-9.2-3.046c-29.331-8.909-60.979-8.453-106.4-8.453h-124.45c-23.611 0-42.75 19.139-42.75 42.752 0 23.608 19.139 42.747 42.75 42.747h124.45c50.748 0 67.234 0.456 81.55 4.803l10.25 3.651c10.067 4.173 19.501 9.805 27.95 16.748l4.25 3.799c9.949 9.518 20.31 24.443 44.95 61.404l281.299 421.848c16.568 24.317 30.694 42.905 48.451 57.5l7.598 5.95c18.094 13.435 38.39 23.687 60.001 30.25l11.151 2.9c26.317 5.879 55.511 5.55 95.247 5.55h21.202l-80.599 80.6-2.903 3.25c-13.706 16.792-12.754 41.592 2.903 57.25zM175.65 797.949c45.422 0 77.069 0.456 106.4-8.45l9.2-3.050c21.205-7.6 40.959-18.819 58.4-33.15l8.65-7.65c19.491-18.637 35.409-43.089 57.45-76.15l12.35-18.6 2.25-3.75c10.13-19.147 4.307-43.22-14.1-55.5-18.417-12.278-42.919-8.42-56.7 8.3l-2.6 3.55-12.35 18.55c-24.64 36.96-35.001 51.882-44.95 61.4l-4.25 3.8c-8.45 6.945-17.883 12.576-27.95 16.75l-10.25 3.65c-14.316 4.347-30.802 4.8-81.55 4.8h-124.45c-23.611 0-42.75 19.139-42.75 42.75s19.139 42.75 42.75 42.75h124.45z" />
<glyph unicode="&#xe925;" glyph-name="share" horiz-adv-x="1075" d="M494.7 920.942c14.919-2.118 26.424-9.713 33.151-14.5 8.468-6.027 18.289-14.483 28.401-23.15l442.45-379.3c2.929-2.6 5.791-5.245 8.3-7.8 3.963-4.042 8.842-9.642 12.8-17.050l3.599-8.050 1.751-5.65c3.016-11.436 3.021-23.462 0-34.9l-1.751-5.647c-4.152-11.561-11.11-19.712-16.399-25.103-2.504-2.55-5.376-5.151-8.3-7.747l-8.75-7.603-433.7-371.748c-10.112-8.668-19.932-17.121-28.401-23.153-6.728-4.787-18.242-12.329-33.151-14.449l-6.6-0.548c-18.493-0.461-36.249 6.6-49.35 19.348l-5.35 5.801c-11.446 14.054-13.601 30.556-14.45 39.946-0.934 10.353-0.9 23.291-0.9 36.603v166.748c-44.019-6.774-87.112-18.867-128.25-36.25l-23.45-10.598c-65.902-31.616-124.682-76.211-172.8-131.103l-9.45-11.1c-11.503-13.85-30.461-19.005-47.4-12.897-16.939 6.113-28.243 22.19-28.25 40.197v31.355l0.6 24.75c5.733 123.197 53.673 240.973 136.2 333.298l15.5 16.6c70.474 72.441 159.734 123.272 257.3 147.2v185.3c0 13.312-0.034 26.25 0.9 36.6 0.848 9.396 2.99 25.938 14.45 40l5.35 5.8c13.099 12.74 30.863 19.809 49.35 19.35l6.6-0.55zM503.55 599.841c0-20.769-14.942-38.57-35.4-42.15-93.603-16.38-179.789-61.835-246.15-130.049l-13-13.952c-56.387-63.073-93.54-140.298-108.1-222.597 39.19 32.43 82.325 60.022 128.45 82.145l27.2 12.252c64 27.034 132.044 43.249 201.35 47.949 11.813 0.804 23.449-3.313 32.1-11.397s13.55-19.41 13.55-31.252v-210.601l429.15 367.852-429.15 367.85v-216.050z" />
<glyph unicode="&#xe926;" glyph-name="generate-file" horiz-adv-x="838" d="M7.773 205.954v484.091c0 38.458-0.061 69.635 2 94.864 2.098 25.683 6.594 48.595 17.455 69.909l6.864 12.273c17.142 27.953 41.713 50.712 71.091 65.682l8.045 3.818c19.020 8.161 39.386 11.8 61.864 13.636 25.229 2.061 56.406 2 94.864 2l245.862-0.182c8.886-0.879 17.226-4.813 23.594-11.182l279.273-279.273c7.275-7.274 11.362-17.122 11.362-27.409v-428.227c0-38.456 0.061-69.637-2.001-94.864-1.834-22.477-5.474-42.845-13.633-61.864l-3.821-8.043c-14.969-29.379-37.725-53.951-65.68-71.094l-12.274-6.861c-21.313-10.864-44.223-15.36-69.907-17.455-25.228-2.062-56.408-2.001-94.864-2.001h-297.909c-38.458 0-69.635-0.061-94.864 2.001-22.478 1.834-42.844 5.474-61.864 13.633l-8.045 3.821c-29.378 14.969-53.949 37.725-71.091 65.68l-6.864 12.274c-10.86 21.313-15.356 44.223-17.455 69.907-2.061 25.228-2 56.408-2 94.864zM605.091 254.045c21.42 0 38.772-17.352 38.772-38.772s-17.352-38.772-38.772-38.772h-372.364c-21.422 0-38.772 17.352-38.772 38.772s17.351 38.772 38.772 38.772h372.364zM605.091 440.227c21.42 0 38.772-17.352 38.772-38.772s-17.352-38.772-38.772-38.772h-372.364c-21.422 0-38.772 17.352-38.772 38.772s17.351 38.772 38.772 38.772h372.364zM325.818 626.409c21.422 0 38.773-17.351 38.773-38.772s-17.351-38.773-38.773-38.773h-93.091c-21.422 0-38.772 17.351-38.772 38.773s17.351 38.772 38.772 38.772h93.091zM85.318 205.954c0-39.736 0.030-67.207 1.773-88.543 1.705-20.88 4.871-32.447 9.227-41.002l3.909-6.954c9.69-15.798 23.579-28.677 40.182-37.139l7.091-3.044c7.84-2.802 18.26-4.901 33.909-6.181 21.337-1.745 48.809-1.773 88.546-1.773h297.909c39.736 0 67.207 0.028 88.543 1.773 20.88 1.704 32.447 4.869 41.002 9.225l6.954 3.91c15.798 9.691 28.677 23.58 37.139 40.183l3.044 7.089c2.802 7.843 4.901 18.264 6.181 33.913 1.745 21.336 1.773 48.808 1.773 88.543v389.455h-166.046c-12.386 0-24.022-0.066-33.727 0.727-7.615 0.623-15.933 1.891-24.408 4.909l-8.499 3.637c-14.043 7.155-25.805 18.049-34.001 31.409l-3.319 5.909c-5.776 11.348-7.713 22.757-8.546 32.909-0.791 9.703-0.726 21.339-0.726 33.727v166.045h-203.273c-39.736 0-67.208-0.030-88.546-1.773-15.649-1.279-26.069-3.38-33.909-6.182l-7.091-3.045c-16.603-8.46-30.492-21.34-40.182-37.136l-3.909-6.955c-4.356-8.554-7.522-20.123-9.227-41-1.743-21.337-1.773-48.809-1.773-88.546v-484.091zM550.772 708.636c0-13.665 0.023-21.596 0.503-27.409 0.195-2.41 0.456-3.746 0.586-4.364 0.68-1.17 1.652-2.093 2.821-2.773 0.61-0.131 1.941-0.438 4.361-0.636 5.814-0.475 13.75-0.5 27.411-0.5h111.23l-146.911 146.909v-111.227z" />
<glyph unicode="&#xe927;" glyph-name="file" horiz-adv-x="838" d="M752.407 690.046c0 39.738-0.028 67.212-1.769 88.545-1.28 15.661-3.379 26.076-6.186 33.909l-3.044 7.046c-8.453 16.594-21.299 30.499-37.092 40.182l-6.954 3.864c-8.541 4.349-20.084 7.522-40.955 9.227-21.332 1.743-48.808 1.773-88.543 1.773h-297.91c-39.738 0-67.212-0.030-88.545-1.773-15.661-1.28-26.076-3.379-33.909-6.182l-7.046-3.045c-16.594-8.455-30.499-21.301-40.182-37.091l-3.864-6.955c-4.349-8.541-7.522-20.086-9.227-40.954-1.743-21.333-1.773-48.807-1.773-88.545v-484.091c0-39.736 0.030-67.212 1.773-88.543 1.705-20.871 4.878-32.414 9.227-40.955l3.864-6.954c9.682-15.793 23.587-28.639 40.182-37.092l7.046-3.044c7.833-2.807 18.248-4.906 33.909-6.186 21.333-1.741 48.807-1.769 88.545-1.769h297.91c39.736 0 67.212 0.028 88.543 1.769 20.871 1.708 32.414 4.878 40.955 9.23l6.954 3.863c15.793 9.681 28.639 23.589 37.092 40.183l3.044 7.042c2.807 7.834 4.906 18.25 6.186 33.913 1.741 21.332 1.769 48.808 1.769 88.543v484.091zM325.818 347.229l3.955-0.182c19.608-1.983 34.909-18.553 34.909-38.684s-15.301-36.701-34.909-38.684l-3.955-0.182h-93.091c-21.465 0-38.864 17.399-38.864 38.865s17.399 38.865 38.864 38.865h93.091zM512 533.409c21.467 0 38.865-17.399 38.865-38.864 0-21.467-17.399-38.865-38.865-38.865h-279.273c-21.465 0-38.864 17.399-38.864 38.865s17.399 38.864 38.864 38.864h279.273zM605.091 719.591c21.467 0 38.865-17.399 38.865-38.864s-17.399-38.864-38.865-38.864h-372.364c-21.465 0-38.864 17.399-38.864 38.864s17.399 38.864 38.864 38.864h372.364zM830.138 205.954c0-38.456 0.014-69.632-2.048-94.864-1.834-22.477-5.474-42.836-13.638-61.864l-3.77-8.090c-14.974-29.389-37.767-53.942-65.727-71.094l-12.274-6.907c-21.327-10.868-44.265-15.309-69.953-17.408-25.232-2.062-56.408-2.048-94.864-2.048h-297.91c-38.454 0-69.632-0.014-94.863 2.048-22.476 1.834-42.838 5.474-61.864 13.638l-8.091 3.77c-29.386 14.974-53.942 37.767-71.091 65.727l-6.909 12.274c-10.867 21.327-15.31 44.265-17.409 69.953-2.061 25.232-2.045 56.408-2.045 94.864v484.091c0 38.454-0.016 69.632 2.045 94.863 2.099 25.688 6.542 48.627 17.409 69.955l6.909 12.273c17.149 27.96 41.705 50.753 71.091 65.727l8.091 3.773c19.026 8.161 39.388 11.8 61.864 13.636 25.232 2.061 56.409 2.045 94.863 2.045h297.91c38.456 0 69.632 0.016 94.864-2.045 25.688-2.099 48.626-6.542 69.953-17.409l12.274-6.909c27.96-17.149 50.753-41.705 65.727-71.091l3.77-8.091c8.164-19.026 11.804-39.388 13.638-61.864 2.062-25.232 2.048-56.409 2.048-94.863v-484.091z" />
<glyph unicode="&#xe928;" glyph-name="refresh" horiz-adv-x="1229" d="M614.385 55.45c122.301 0 231.552 55.916 303.601 143.698l13.901 17.951 2.749 3.4c14.428 16.113 38.989 18.995 56.852 6.001 17.843-13 22.682-37.274 11.796-55.946l-2.396-3.651-8.3-11.054c-87.337-112.896-224.276-185.697-378.204-185.697-245.715 0.010-448.012 185.472-474.748 424.049l-27.55-27.551-3.25-2.949c-16.758-13.655-41.483-12.667-57.1 2.949-16.636 16.66-16.636 43.643 0 60.303l102.4 102.398c16.662 16.662 43.687 16.662 60.35 0l102.4-102.398 2.95-3.2c13.673-16.758 12.668-41.477-2.95-57.103-16.663-16.66-43.688-16.66-60.35 0l-31.4 31.452c24.521-193.213 189.379-342.641 389.249-342.651zM614.385 925.85c245.729 0 448.067-185.463 474.803-424.050l27.551 27.55 3.2 2.95c16.758 13.679 41.472 12.675 57.098-2.95s16.63-40.342 2.949-57.1l-2.949-3.2-102.4-102.402-3.2-2.949c-15.647-12.769-38.257-12.769-53.898 0l-3.2 2.949-102.4 102.402c-16.666 16.663-16.666 43.638 0 60.3 16.66 16.662 43.638 16.662 60.298 0l31.498-31.45c-24.515 193.225-189.466 342.65-389.35 342.65-122.286-0.006-231.505-55.921-303.548-143.7l-13.9-17.95-2.75-3.4c-14.433-16.122-39.037-19.015-56.9-6-17.846 13.004-22.637 37.278-11.75 55.95l2.4 3.65 8.3 11.050c87.332 112.889 224.234 185.694 378.148 185.7z" />
<glyph unicode="&#xe929;" glyph-name="comment" d="M930.15 448c0 230.929-187.223 418.15-418.15 418.15-230.928 0-418.15-187.222-418.15-418.15 0-55.695 10.86-108.769 30.55-157.251 3.43-8.443 7.395-17.705 9.3-26.199 1.592-7.101 2.248-13.225 2.25-20.5 0.002-8.632-1.617-17.454-2.9-25.149l-30-179.799 192.050 31.898c4.245 0.563 8.627 0.952 12.95 0.952 7.277-0.005 13.398-0.66 20.5-2.253 8.496-1.905 17.755-5.868 26.2-9.298 48.482-19.692 101.553-30.551 157.25-30.551 230.927 0 418.15 187.223 418.15 418.15zM1015.45 448c0-278.057-225.393-503.45-503.45-503.45-66.891 0-130.844 13.041-189.35 36.797-5.318 2.161-8.53 3.492-10.95 4.403-0.861 0.323-1.453 0.532-1.8 0.65-0.84 0.189-1.051 0.21-0.95 0.2-0.101 0.005-0.398 0.051-0.95 0.051 0.532 0 0.423 0.046-1.4-0.2l-9.65-1.551-182.15-30.351c-8.744-1.459-18.152-3.098-26.15-3.702-8.197-0.614-20.426-0.722-33.2 4.751-16.098 6.907-28.946 19.753-35.85 35.85-5.475 12.774-5.368 25.006-4.75 33.198 0.604 7.997 2.243 17.408 3.7 26.153l30.35 182.149c0.81 4.864 1.273 7.603 1.55 9.651 0.247 1.823 0.2 1.93 0.2 1.398 0 0.553-0.043 0.85-0.050 0.952l-0.2 0.947c-0.117 0.348-0.327 0.942-0.65 1.802-0.909 2.422-2.24 5.632-4.4 10.952-23.761 58.506-36.8 122.455-36.8 189.348 0 278.057 225.393 503.45 503.45 503.45s503.45-225.393 503.45-503.45z" />
<glyph unicode="&#xe92a;" glyph-name="user-circle" d="M938.589 448c0 235.599-190.99 426.591-426.589 426.591s-426.591-190.992-426.591-426.591c0-108.674 40.686-207.811 107.591-283.136 41.069 54.174 106.058 89.274 179.364 89.274h279.273c73.295 0 138.249-35.114 179.316-89.274 66.918 75.329 107.636 174.452 107.636 283.136zM372.364 176.407c-50.85 0-95.69-25.805-122.182-65.089 72.285-56.292 163.103-89.907 261.818-89.907 98.704 0 189.491 33.629 261.772 89.907-26.494 39.27-71.294 65.089-122.135 65.089h-279.273zM659.316 564.364c0 81.361-65.955 147.318-147.316 147.318s-147.318-65.958-147.318-147.318c0-81.361 65.958-147.316 147.318-147.316s147.316 65.955 147.316 147.316zM1016.32 448c0-148.843-64.545-282.55-167.094-374.863-0.61-0.559-1.215-1.117-1.862-1.638-89.135-79.448-206.569-127.818-335.365-127.818-128.807 0-246.275 48.356-335.409 127.818-0.648 0.521-1.255 1.080-1.864 1.638-102.535 92.314-167.046 226.034-167.046 374.863 0 278.528 225.79 504.318 504.318 504.318s504.32-225.79 504.32-504.318zM737.047 564.364c0-124.29-100.757-225.047-225.047-225.047s-225.045 100.757-225.045 225.047c0 124.29 100.755 225.045 225.045 225.045s225.047-100.755 225.047-225.045z" />
<glyph unicode="&#xe92b;" glyph-name="info-circle" d="M938.589 448c0 235.599-190.99 426.591-426.589 426.591s-426.591-190.992-426.591-426.591c0-235.599 190.992-426.589 426.591-426.589s426.589 190.99 426.589 426.589zM473.135 261.818v186.182c0 21.467 17.399 38.865 38.865 38.865s38.865-17.399 38.865-38.865v-186.182c0-21.467-17.399-38.865-38.865-38.865s-38.865 17.399-38.865 38.865zM512.456 673.045l3.998-0.182c19.591-1.996 34.863-18.563 34.863-38.682s-15.272-36.685-34.863-38.682l-3.998-0.182h-0.456c-21.467 0-38.865 17.399-38.865 38.864s17.399 38.864 38.865 38.864h0.456zM1016.32 448c0-278.528-225.792-504.32-504.32-504.32s-504.318 225.792-504.318 504.32c0 278.528 225.79 504.318 504.318 504.318s504.32-225.79 504.32-504.318z" />
<glyph unicode="&#xe92c;" glyph-name="chevron-up" d="M801.941 286.059c-18.745-18.745-49.137-18.745-67.883 0l-222.059 222.059-222.059-222.059c-18.743-18.745-49.139-18.745-67.883 0s-18.743 49.137 0 67.883l256 256c18.743 18.743 49.139 18.743 67.883 0l256-256c18.745-18.745 18.745-49.137 0-67.883z" />
<glyph unicode="&#xe92d;" glyph-name="star" d="M488.354 877.571c8.745 21.025 38.529 21.025 47.274 0l105.786-254.335c3.686-8.863 12.019-14.92 21.587-15.686l274.579-22.013c22.694-1.82 31.898-30.147 14.605-44.961l-209.197-179.2c-7.29-6.245-10.477-16.044-8.25-25.382l63.917-267.937c5.286-22.15-18.81-39.661-38.246-27.789l-235.075 143.584c-8.193 5.005-18.496 5.005-26.688 0l-235.075-143.584c-19.433-11.872-43.53 5.638-38.246 27.789l63.914 267.937c2.227 9.338-0.957 19.137-8.247 25.382l-209.198 179.2c-17.294 14.814-8.090 43.141 14.609 44.961l274.575 22.013c9.569 0.767 17.905 6.823 21.592 15.686l105.784 254.335z" />
<glyph unicode="&#xe92e;" glyph-name="bag" d="M896.096 524.812c0 24.587-0.013 40.471-1.005 52.563-0.467 5.788-1.094 9.77-1.747 12.563l-1.875 5.5c-3.072 6.020-7.526 11.182-12.934 15.125l-5.754 3.562c-2.125 1.084-6.464 2.678-18.061 3.625-12.096 0.988-27.974 1-52.563 1h-580.25c-24.598 0-40.531-0.012-52.625-1-5.793-0.474-9.771-1.094-12.563-1.75l-5.437-1.875c-6.028-3.071-11.242-7.52-15.187-12.938l-3.5-5.75c-1.084-2.127-2.74-6.465-3.688-18.063-0.988-12.092-1-27.977-1-52.563v-324.249c0-24.602 0.012-40.531 1-52.627 0.947-11.571 2.604-15.872 3.688-17.997l3.5-5.754c3.948-5.427 9.149-9.862 15.187-12.934l5.437-1.875c2.792-0.659 6.762-1.338 12.563-1.811 12.095-0.992 28.027-1.005 52.625-1.005h580.25c24.582 0 40.474 0.013 52.563 1.005 11.597 0.947 15.936 2.598 18.061 3.686l5.754 3.501c5.414 3.942 9.862 9.158 12.934 15.187l1.875 5.434c0.653 2.797 1.274 6.771 1.747 12.563 0.992 12.096 1.005 28.026 1.005 52.627v324.249zM512.031 789.437c-31.802 0-47.011-0.2-56.625-1.375l-8.188-1.562c-25.784-6.915-46.645-25.372-56.75-49.625l-3.625-10.75c-1.365-5.097-2.046-11.175-2.437-22.25h255.187c-0.209 5.909-0.426 10.393-0.875 14.063l-1.5 8.188c-6.914 25.795-25.422 46.647-49.687 56.75l-10.75 3.625c-9.5 2.545-22.35 2.938-64.75 2.938zM981.216 200.563c0-23.194 0.026-43.2-1.312-59.565-1.030-12.634-2.995-25.203-7.373-37.498l-5.248-12.25c-10.733-21.050-27.040-38.656-47.066-50.938l-8.813-4.941c-16.122-8.211-32.89-11.245-49.747-12.621-16.365-1.338-36.314-1.312-59.501-1.312h-580.25c-23.194 0-43.198-0.026-59.563 1.312-12.631 1.030-25.206 2.995-37.5 7.373l-12.25 5.248c-21.044 10.726-38.653 27.046-50.938 47.066l-4.937 8.813c-8.214 16.122-11.247 32.896-12.625 49.747-1.337 16.365-1.312 36.371-1.312 59.565v324.249c0 23.188-0.024 43.139 1.312 59.5 1.378 16.861 4.409 33.624 12.625 49.75l4.937 8.813c12.284 20.026 29.892 36.334 50.938 47.062l12.25 5.25c12.296 4.38 24.867 6.342 37.5 7.375 16.365 1.337 36.369 1.312 59.563 1.312h77.312c0.549 16.755 1.858 31.115 5.375 44.25l3.313 10.875c18.257 53.617 62.125 94.963 117.312 109.75l8.813 2c21.084 4.069 45.676 3.812 78 3.812 36.928 0 63.763 0.364 86.812-5.812l10.876-3.313c53.596-18.265 94.902-62.138 109.686-117.313l2.067-8.812c2.067-10.721 2.88-22.352 3.309-35.438h77.376c23.187 0 43.136 0.024 59.501-1.312 16.858-1.378 33.626-4.408 49.747-12.625l8.813-4.938c20.026-12.287 36.339-29.888 47.066-50.938l5.248-12.188c4.39-12.314 6.342-24.91 7.373-37.562 1.338-16.362 1.312-36.312 1.312-59.5v-324.249z" />
<glyph unicode="&#xe92f;" glyph-name="assessment" d="M817.707 669.875c0 36.427-0.026 61.611-1.621 81.167-1.173 14.356-3.098 23.903-5.67 31.083l-2.79 6.458c-7.748 15.212-19.524 27.958-34.001 36.833l-6.374 3.542c-7.829 3.987-18.411 6.895-37.542 8.458-19.554 1.598-44.74 1.625-81.165 1.625h-273.084c-36.427 0-61.611-0.027-81.167-1.625-14.356-1.173-23.903-3.097-31.083-5.667l-6.458-2.792c-15.212-7.751-27.958-19.526-36.833-34l-3.542-6.375c-3.987-7.829-6.895-18.412-8.458-37.542-1.598-19.555-1.625-44.74-1.625-81.167v-443.75c0-36.425 0.027-61.611 1.625-81.165 1.563-19.132 4.471-29.713 8.458-37.542l3.542-6.374c8.876-14.477 21.622-26.253 36.833-34.001l6.458-2.79c7.18-2.573 16.727-4.497 31.083-5.67 19.555-1.596 44.74-1.621 81.167-1.621h273.084c36.425 0 61.611 0.026 81.165 1.621 19.132 1.566 29.713 4.471 37.542 8.461l6.374 3.541c14.477 8.875 26.253 21.623 34.001 36.834l2.79 6.455c2.573 7.181 4.497 16.73 5.67 31.087 1.596 19.554 1.621 44.74 1.621 81.165v443.75zM426.667 355.627l3.627-0.166c17.971-1.818 32-17.007 32-35.46s-14.029-33.643-32-35.46l-3.627-0.166h-85.333c-19.676 0-35.625 15.949-35.625 35.627s15.949 35.627 35.625 35.627h85.333zM597.333 526.293c19.678 0 35.627-15.949 35.627-35.627s-15.949-35.627-35.627-35.627h-256c-19.676 0-35.625 15.949-35.625 35.627s15.949 35.627 35.625 35.627h256zM682.667 696.958c19.678 0 35.627-15.949 35.627-35.625s-15.949-35.625-35.627-35.625h-341.333c-19.676 0-35.625 15.949-35.625 35.625s15.949 35.625 35.625 35.625h341.333zM888.96 226.125c0-35.251 0.013-63.829-1.877-86.959-1.681-20.604-5.018-39.266-12.501-56.708l-3.456-7.415c-13.726-26.94-34.62-49.446-60.25-65.169l-11.251-6.332c-19.55-9.963-40.576-14.033-64.124-15.957-23.13-1.89-51.708-1.877-86.959-1.877h-273.084c-35.25 0-63.829-0.013-86.958 1.877-20.603 1.681-39.268 5.018-56.708 12.501l-7.417 3.456c-26.937 13.726-49.446 34.62-65.167 60.25l-6.333 11.251c-9.961 19.55-14.034 40.576-15.959 64.124-1.889 23.13-1.875 51.708-1.875 86.959v443.75c0 35.25-0.015 63.829 1.875 86.958 1.924 23.547 5.997 44.575 15.959 64.125l6.333 11.25c15.72 25.63 38.229 46.524 65.167 60.25l7.417 3.459c17.44 7.481 36.105 10.816 56.708 12.5 23.129 1.889 51.708 1.875 86.958 1.875h273.084c35.251 0 63.829 0.015 86.959-1.875 23.548-1.924 44.574-5.997 64.124-15.959l11.251-6.333c25.63-15.72 46.524-38.229 60.25-65.167l3.456-7.417c7.484-17.44 10.82-36.105 12.501-56.708 1.89-23.129 1.877-51.708 1.877-86.958v-443.75z" />
<glyph unicode="&#xe930;" glyph-name="clock" d="M895.974 448.016c-0.010 212.069-171.93 384-383.999 384-212.064-0.009-383.991-171.936-384-384 0-212.071 171.931-383.99 384-384.001 212.075 0 383.999 171.924 383.999 384.001zM469.325 704.016c0.009 23.55 19.099 42.641 42.65 42.65 23.557 0 42.69-19.094 42.7-42.65v-229.65l147.052-73.551 3.799-2.15c18.268-11.571 25.18-35.338 15.299-55.096-9.882-19.753-33.029-28.472-53.248-20.803l-4.004 1.751-170.648 85.299c-14.455 7.229-23.6 22.042-23.6 38.201v256zM981.325 448.016c0-259.206-210.145-469.351-469.35-469.351-259.198 0.010-469.3 210.15-469.3 469.351 0.009 259.192 210.108 469.291 469.3 469.3 259.199 0 469.34-210.102 469.35-469.3z" />
<glyph unicode="&#xe931;" glyph-name="envelope" horiz-adv-x="1252" d="M1147.113 641.222l-389.723-272.832c-34.389-24.070-61.559-44.038-92.615-51.78-25.606-6.383-52.389-6.383-77.995 0-31.058 7.743-58.226 27.711-92.614 51.78l-389.778 272.832v-375.278c0-48.566 0.036-82.148 2.167-108.22 2.084-25.509 5.962-39.617 11.278-50.057 11.808-23.177 30.659-42.024 53.833-53.834 10.439-5.319 24.55-9.193 50.055-11.281 26.074-2.128 59.653-2.162 108.222-2.162h591.667c48.566 0 82.148 0.034 108.22 2.162 25.509 2.088 39.617 5.962 50.057 11.281 23.177 11.81 42.024 30.657 53.834 53.834 5.319 10.439 9.193 24.548 11.281 50.057 2.128 26.072 2.162 59.654 2.162 108.22v364.112c0 3.813-0.051 7.534-0.051 11.166zM329.944 855.611c-48.569 0-82.148-0.036-108.222-2.167-25.506-2.084-39.617-5.962-50.055-11.278-23.175-11.808-42.025-30.659-53.833-53.833-4.074-8-7.339-18.149-9.556-33.944l440.333-308.167c40.804-28.564 51.265-34.985 61.113-37.444 10.524-2.624 21.584-2.624 32.108 0 9.847 2.459 20.309 8.88 61.11 37.444l440.28 308.167c-2.219 15.791-5.427 25.945-9.5 33.944-11.81 23.175-30.657 42.025-53.834 53.833-10.439 5.316-24.548 9.193-50.057 11.278-26.072 2.13-59.654 2.167-108.22 2.167h-591.667zM1242.169 265.944c0-47.002 0.017-85.106-2.503-115.945-2.566-31.397-7.993-59.432-21.276-85.498-20.918-41.045-54.289-74.416-95.334-95.334-26.066-13.284-54.101-18.711-85.498-21.276-30.839-2.52-68.944-2.503-115.945-2.503h-591.667c-47 0-85.105-0.017-115.944 2.503-31.396 2.566-59.434 7.993-85.5 21.276-41.045 20.918-74.418 54.289-95.333 95.334-13.282 26.066-18.713 54.101-21.278 85.498-2.519 30.839-2.5 68.944-2.5 115.945v364.112c0 35.686 0.018 66.245 1.111 92.389-1.827 8.485-1.318 17.417 1.667 25.833 2.642 30.475 8.041 57.789 21 83.222 20.916 41.045 54.288 74.418 95.333 95.333 26.066 13.282 54.104 18.713 85.5 21.278 30.839 2.519 68.944 2.5 115.944 2.5h591.667c47.002 0 85.106 0.019 115.945-2.5 31.397-2.565 59.432-7.996 85.498-21.278 41.045-20.916 74.416-54.288 95.334-95.333 12.959-25.433 18.358-52.747 20.998-83.222 2.987-8.416 3.493-17.348 1.667-25.833 1.092-26.144 1.115-56.702 1.115-92.389v-364.112z" />
</font>
</defs>
</svg>
